<svg xmlns="http://www.w3.org/2000/svg" xmlns:xlink="http://www.w3.org/1999/xlink" width="571" height="409" viewBox="0 0 571 409"><defs><style>.a{fill:none;}.b{clip-path:url(#a);}.ab,.ai,.ap,.aq,.ar,.as,.c,.k,.n{isolation:isolate;}.d{fill:url(#b);}.e{fill:url(#c);}.f{fill:url(#d);}.g{fill:url(#e);}.h{fill:url(#i);}.i{fill:url(#j);}.j{fill:url(#m);}.af,.ai,.aq,.ar,.k,.n{opacity:0.561;}.ab,.ai,.aq,.ar,.k,.n{mix-blend-mode:overlay;}.k{fill:url(#r);}.l{fill:#ff65eb;}.m{fill:#ff20ce;}.n{fill:url(#v);}.af,.o{fill:#a5ffff;}.p{fill:url(#z);}.q{fill:#193164;}.r{fill:#1a6cbe;}.s{fill:#102465;}.t{fill:#00154f;}.u{fill:url(#aa);}.as,.v{fill:#1a9bdb;}.w{fill:#103450;}.x{fill:#ffc6a0;}.y{fill:#fdf7fb;}.z{fill:#fff;}.aa,.ab,.ac{fill:#00edf9;}.ab,.ac,.av{opacity:0.6;}.ad{fill:url(#ab);}.ae{fill:url(#ac);}.ag{fill:#b4ffff;}.ah{fill:#b8ffff;opacity:0.808;}.ai{fill:url(#ak);}.aj{fill:url(#al);}.ak{fill:url(#am);}.al{fill:url(#an);}.am{fill:#162a56;}.an{fill:url(#ar);}.ao{fill:#165da4;}.ap{opacity:0.3;}.ap,.as{mix-blend-mode:multiply;}.aq{fill:url(#as);}.ar{fill:url(#at);}.as{opacity:0.4;}.at{fill:#011c63;}.au{fill:#fcfefb;}.aw{fill:url(#ax);}</style><clipPath id="a"><rect class="a" width="571" height="409" transform="translate(40.655 0.103)"/></clipPath><linearGradient id="b" x1="0.58" y1="0.111" x2="0.421" y2="0.887" gradientUnits="objectBoundingBox"><stop offset="0" stop-color="#89daf4"/><stop offset="1" stop-color="#008dd7"/></linearGradient><linearGradient id="c" y1="0.5" x2="1" y2="0.5" gradientUnits="objectBoundingBox"><stop offset="0" stop-color="#144188"/><stop offset="0.997" stop-color="#1a7cde"/></linearGradient><linearGradient id="d" y1="0.5" x2="1" y2="0.5" gradientUnits="objectBoundingBox"><stop offset="0" stop-color="#144188"/><stop offset="0.998" stop-color="#102465"/></linearGradient><linearGradient id="e" x1="0.521" y1="0.177" x2="0.485" y2="0.729" gradientUnits="objectBoundingBox"><stop offset="0" stop-color="#0276ce" stop-opacity="0"/><stop offset="0.061" stop-color="#0276ce" stop-opacity="0.165"/><stop offset="0.154" stop-color="#0276ce" stop-opacity="0.384"/><stop offset="0.251" stop-color="#0276ce" stop-opacity="0.573"/><stop offset="0.351" stop-color="#0276ce" stop-opacity="0.729"/><stop offset="0.453" stop-color="#0276ce" stop-opacity="0.847"/><stop offset="0.561" stop-color="#0276ce" stop-opacity="0.933"/><stop offset="0.676" stop-color="#0276ce" stop-opacity="0.984"/><stop offset="0.812" stop-color="#0276ce"/></linearGradient><linearGradient id="i" x1="0.521" y1="0.177" x2="0.485" y2="0.729" gradientUnits="objectBoundingBox"><stop offset="0" stop-color="#006ac6" stop-opacity="0"/><stop offset="0.05" stop-color="#006ac6" stop-opacity="0.133"/><stop offset="0.145" stop-color="#006ac6" stop-opacity="0.361"/><stop offset="0.244" stop-color="#006bc6" stop-opacity="0.561"/><stop offset="0.345" stop-color="#006bc6" stop-opacity="0.718"/><stop offset="0.45" stop-color="#006bc6" stop-opacity="0.843"/><stop offset="0.56" stop-color="#006bc6" stop-opacity="0.929"/><stop offset="0.678" stop-color="#006bc6" stop-opacity="0.984"/><stop offset="0.817" stop-color="#006cc7"/></linearGradient><linearGradient id="j" x1="0.58" y1="0.111" x2="0.421" y2="0.887" xlink:href="#b"/><linearGradient id="m" x1="0.516" y1="0.177" x2="0.489" y2="0.729" gradientUnits="objectBoundingBox"><stop offset="0" stop-color="#0044ae" stop-opacity="0"/><stop offset="0.004" stop-color="#0044ae" stop-opacity="0.012"/><stop offset="0.104" stop-color="#0044ae" stop-opacity="0.271"/><stop offset="0.208" stop-color="#0044ae" stop-opacity="0.494"/><stop offset="0.316" stop-color="#0044ae" stop-opacity="0.678"/><stop offset="0.426" stop-color="#0044ae" stop-opacity="0.82"/><stop offset="0.542" stop-color="#0044ae" stop-opacity="0.922"/><stop offset="0.666" stop-color="#0044ae" stop-opacity="0.98"/><stop offset="0.812" stop-color="#0044ae"/></linearGradient><linearGradient id="r" x1="0.503" y1="0.08" x2="0.496" y2="0.805" gradientUnits="objectBoundingBox"><stop offset="0.037" stop-color="#93fffd" stop-opacity="0"/><stop offset="0.135" stop-color="#95fefd" stop-opacity="0.071"/><stop offset="0.332" stop-color="#9afdfd" stop-opacity="0.251"/><stop offset="0.608" stop-color="#a3fcfe" stop-opacity="0.545"/><stop offset="0.951" stop-color="#b0fbfe" stop-opacity="0.941"/><stop offset="1" stop-color="#b2fbff"/></linearGradient><linearGradient id="v" x1="0.498" y1="0.128" x2="0.484" y2="0.887" xlink:href="#r"/><linearGradient id="z" x1="0.55" y1="-0.018" x2="0.435" y2="1.175" gradientUnits="objectBoundingBox"><stop offset="0" stop-color="#cdeffb"/><stop offset="1" stop-color="#89daf4"/></linearGradient><linearGradient id="aa" x1="0" y1="0.5" x2="1" y2="0.5" xlink:href="#z"/><linearGradient id="ab" x1="0.66" y1="0.289" x2="0.276" y2="0.794" xlink:href="#c"/><linearGradient id="ac" x1="1.004" y1="0.352" x2="-0.907" y2="0.634" gradientUnits="objectBoundingBox"><stop offset="0.153" stop-color="#144188"/><stop offset="0.997" stop-color="#1a7cde"/></linearGradient><linearGradient id="ak" x1="0.647" y1="-0.012" x2="0.186" y2="0.855" xlink:href="#r"/><linearGradient id="al" x1="0.986" y1="0.501" x2="-0.233" y2="0.499" xlink:href="#c"/><linearGradient id="am" x1="1.343" y1="0.506" x2="0.34" y2="0.489" xlink:href="#c"/><linearGradient id="an" x1="0.49" y1="0.926" x2="0.503" y2="0.327" gradientUnits="objectBoundingBox"><stop offset="0" stop-color="#0044ae"/><stop offset="0.183" stop-color="#0044ae" stop-opacity="0.765"/><stop offset="0.461" stop-color="#0044ae" stop-opacity="0.435"/><stop offset="0.7" stop-color="#0044ae" stop-opacity="0.2"/><stop offset="0.887" stop-color="#0044ae" stop-opacity="0.055"/><stop offset="1" stop-color="#0044ae" stop-opacity="0"/></linearGradient><linearGradient id="ar" x1="0.642" y1="0.005" x2="0.238" y2="1.418" xlink:href="#z"/><linearGradient id="as" x1="0.493" y1="0.181" x2="0.467" y2="0.901" xlink:href="#r"/><linearGradient id="at" x1="0.499" y1="0.097" x2="0.501" y2="0.818" xlink:href="#r"/><linearGradient id="ax" x1="0.58" y1="0.111" x2="0.421" y2="0.887" xlink:href="#b"/></defs><g class="b" transform="translate(-40.655 -0.103)"><g transform="translate(178.215 129.1)"><g class="c"><path class="d" d="M221.3,658.426l-11.241,6.525-11.29-6.525,11.29-6.525Z" transform="translate(-198.768 -651.901)"/><path class="e" d="M223.807,659.876v220.36l-11.241,6.525V666.4Z" transform="translate(-201.277 -653.351)"/><path class="f" d="M210.058,666.4v220.36l-11.29-6.525V659.876Z" transform="translate(-198.768 -653.351)"/></g><path class="g" d="M210.058,651.9l-11.29,6.525v220.36l11.29,6.525,11.241-6.525V658.426Z" transform="translate(-198.768 -651.901)"/></g><g transform="translate(167.298 176.256)"><g transform="translate(0)"><g class="c"><path class="d" d="M200.5,713.9l-7.519,4.365-7.552-4.365,7.552-4.365Z" transform="translate(-185.426 -709.534)"/><path class="e" d="M202.175,714.869V862.275l-7.519,4.365V719.234Z" transform="translate(-187.104 -710.504)"/><path class="f" d="M192.978,719.234V866.64l-7.552-4.365V714.869Z" transform="translate(-185.426 -710.504)"/></g></g><path class="h" d="M192.978,709.534l-7.552,4.365V861.306l7.552,4.365,7.519-4.365V713.9Z" transform="translate(-185.426 -709.534)"/></g><g transform="translate(40.574 295.223)"><g class="c"><path class="i" d="M53.076,861.459l-11.241,6.525-11.29-6.525,11.29-6.525Z" transform="translate(-30.546 -854.934)"/><path class="e" d="M55.585,862.909v159.909l-11.241,6.525V869.434Z" transform="translate(-33.054 -856.383)"/><path class="f" d="M41.836,869.434v159.909l-11.29-6.525V862.909Z" transform="translate(-30.546 -856.384)"/></g><path class="j" d="M41.835,854.934l-11.29,6.525v159.909l11.29,6.525,11.241-6.525V861.459Z" transform="translate(-30.546 -854.934)"/></g><g transform="translate(209.088 169.547)"><g class="c"><path class="i" d="M250.647,705.432l-7.058,4.1-7.088-4.1,7.088-4.1Z" transform="translate(-236.501 -701.335)"/><path class="e" d="M252.222,706.343V844.7l-7.058,4.1V710.44Z" transform="translate(-238.076 -702.246)"/><path class="f" d="M243.59,710.44V848.8l-7.088-4.1V706.343Z" transform="translate(-236.501 -702.246)"/></g><path class="g" d="M243.59,701.335l-7.088,4.1V843.79l7.088,4.1,7.058-4.1V705.432Z" transform="translate(-236.501 -701.335)"/></g><g transform="translate(226.624 34.098)"><path class="k" d="M257.933,535.792V859.5l147.889,85.477L553.07,859.5V535.791Z" transform="translate(-257.933 -535.791)"/><g transform="translate(0 96.808)"><g class="c"><path class="d" d="M553.07,739.585,405.823,825.063,257.933,739.586l147.889-85.478Z" transform="translate(-257.933 -654.109)"/><path class="e" d="M585.929,758.577V972.59l-147.248,85.478V844.054Z" transform="translate(-290.792 -673.1)"/><path class="f" d="M405.823,844.055v214.014L257.933,972.592V758.578Z" transform="translate(-257.933 -673.101)"/></g></g><path class="l" d="M438.681,863.5l147.247-85.478v-1.461L438.681,862.044Z" transform="translate(-290.792 -579.562)"/><path class="m" d="M257.933,778.028,405.823,863.5v-1.461L257.933,776.568Z" transform="translate(-257.933 -579.563)"/><g transform="translate(9.319 68.1)"><path class="n" d="M424.244,619.022l5.844,41.581,6.222,3.592,6.182-3.592,5.129-41.581Z" transform="translate(-297.487 -619.022)"/><path class="o" d="M431.387,669.043l6.182-3.593,6.222,3.592-6.182,3.592Z" transform="translate(-298.785 -627.462)"/><path class="n" d="M269.323,708.308l5.844,41.581,6.222,3.592,6.182-3.592,5.129-41.581Z" transform="translate(-269.323 -635.254)"/><path class="o" d="M276.466,758.329l6.182-3.593,6.222,3.592-6.182,3.592Z" transform="translate(-270.622 -643.694)"/><path class="n" d="M581.824,708.308l5.844,41.581,6.222,3.592,6.182-3.592,5.129-41.581Z" transform="translate(-326.134 -635.254)"/><path class="o" d="M588.967,758.329l6.182-3.593,6.222,3.592-6.182,3.592Z" transform="translate(-327.432 -643.694)"/><path class="n" d="M424.244,795.808l5.844,41.581,6.222,3.592,6.182-3.592,5.129-41.581Z" transform="translate(-297.487 -651.16)"/><path class="o" d="M431.387,845.829l6.182-3.592,6.222,3.592-6.182,3.592Z" transform="translate(-298.785 -659.601)"/></g><g transform="translate(62.602 53.074)"><g transform="translate(2.37 1.415)"><path class="p" d="M441.436,692.23a4.293,4.293,0,0,1,3.909,0L506.3,727.654a1.2,1.2,0,0,1,0,2.27L403.277,789.4a4.318,4.318,0,0,1-3.918,0L338.4,753.973a1.2,1.2,0,0,1,.012-2.265Z" transform="translate(-337.388 -618.634)"/><path class="q" d="M446.454,705.109a1.037,1.037,0,0,1-.934,0l-4.256-2.473a.287.287,0,0,1,0-.541l4.284-2.473a1.04,1.04,0,0,1,.933,0l4.256,2.473a.287.287,0,0,1,0,.541Zm-1.873,1.081a.286.286,0,0,0,0-.54l-4.256-2.473a1.036,1.036,0,0,0-.934,0l-4.283,2.473a.286.286,0,0,0,0,.54l4.256,2.473a1.035,1.035,0,0,0,.933,0Zm-6.165,3.56c.265-.153.258-.393,0-.541l-4.256-2.473a1.021,1.021,0,0,0-.934,0l-4.275,2.469c-.265.153-.258.393,0,.54l4.256,2.473a1.021,1.021,0,0,0,.934,0Zm24.555,0a.287.287,0,0,0,0-.541l-4.256-2.473a1.036,1.036,0,0,0-.934,0L453.5,709.2a.287.287,0,0,0,0,.541l4.255,2.473a1.042,1.042,0,0,0,.934,0Zm-20.435,4.712,4.275-2.469c.265-.153.258-.393,0-.541l-4.255-2.473a1.024,1.024,0,0,0-.934,0l-4.275,2.469c-.265.153-.267.4-.012.546l4.256,2.473A1.04,1.04,0,0,0,442.536,714.457Zm10.025-4.172a1.04,1.04,0,0,0-.933,0l-4.284,2.473a.287.287,0,0,0,0,.541l4.256,2.473a1.036,1.036,0,0,0,.934,0l4.283-2.473a.287.287,0,0,0,0-.541ZM426.1,716.859a.286.286,0,0,0,0-.54l-4.256-2.473a1.037,1.037,0,0,0-.934,0l-4.284,2.473a.286.286,0,0,0,0,.54l4.255,2.473a1.037,1.037,0,0,0,.934,0Zm4.111,4.712L434.5,719.1a.287.287,0,0,0,0-.541l-4.255-2.473a1.037,1.037,0,0,0-.934,0l-4.284,2.473a.286.286,0,0,0,0,.54l4.256,2.473A1.037,1.037,0,0,0,430.214,721.571Zm-10.268-1.157a.287.287,0,0,0,0-.541l-4.256-2.473a1.034,1.034,0,0,0-.933,0l-4.284,2.473a.286.286,0,0,0,0,.54l4.256,2.473a1.037,1.037,0,0,0,.934,0Zm19.329,2.473a1.042,1.042,0,0,0,.934,0l4.284-2.473a.287.287,0,0,0,0-.541l-4.256-2.473a1.034,1.034,0,0,0-.933,0l-4.284,2.473a.287.287,0,0,0,0,.541Zm-20.4-.776a.287.287,0,0,0,0,.541l4.256,2.473a1.04,1.04,0,0,0,.933,0l4.284-2.473a.287.287,0,0,0,0-.541l-4.256-2.473a1.035,1.035,0,0,0-.933,0Zm-5.082,1.857a.287.287,0,0,0,0-.541l-4.256-2.473a1.037,1.037,0,0,0-.934,0l-4.284,2.473a.287.287,0,0,0,0,.541l4.255,2.473a1.042,1.042,0,0,0,.934,0Zm19.329,2.473a1.035,1.035,0,0,0,.933,0l4.284-2.473a.287.287,0,0,0,0-.541l-4.256-2.473a1.042,1.042,0,0,0-.934,0l-4.284,2.473a.287.287,0,0,0,0,.541Zm33.766-.281c-.265.153-.258.393,0,.541l1.272.74a1.024,1.024,0,0,0,.934,0l5.115-2.953a.287.287,0,0,0,0-.541l-1.272-.74a1.04,1.04,0,0,0-.933,0Zm-54.17-.495c-.265.153-.258.393,0,.541l4.256,2.473a1.021,1.021,0,0,0,.934,0l4.275-2.469c.265-.153.258-.393,0-.54l-4.256-2.473a1.021,1.021,0,0,0-.934,0Zm15.212-1.157a1.037,1.037,0,0,0-.934,0l-4.284,2.473a.287.287,0,0,0,0,.541L426.962,730a1.036,1.036,0,0,0,.934,0l4.284-2.473a.287.287,0,0,0,0-.541Zm-21.368,4.712c-.265.153-.258.393,0,.54l4.256,2.473a1.02,1.02,0,0,0,.933,0l4.275-2.468c.265-.153.258-.393,0-.541l-4.256-2.473a1.02,1.02,0,0,0-.933,0Zm33,1.127c.256-.147.266-.387,0-.54l-4.247-2.469a1.022,1.022,0,0,0-.934,0l-4.284,2.473c-.256.148-.266.387,0,.54l4.247,2.469a1.021,1.021,0,0,0,.934,0Zm-38.092.735a.287.287,0,0,0,0-.541l-4.256-2.473a1.036,1.036,0,0,0-.934,0l-4.275,2.469c-.264.153-.266.4-.011.546l4.256,2.473a1.038,1.038,0,0,0,.942,0Zm-1.075,1.7a.287.287,0,0,0,0,.541l4.255,2.473a1.037,1.037,0,0,0,.934,0l4.284-2.473a.287.287,0,0,0,0-.541l-4.256-2.473a1.037,1.037,0,0,0-.934,0Zm27.793,3.6a1.021,1.021,0,0,0,.934,0L433.4,733.9c.257-.147.267-.387,0-.54l-4.247-2.469a1.02,1.02,0,0,0-.933,0l-4.284,2.473c-.256.148-.267.388,0,.541Zm-32.874-1.739a.287.287,0,0,0,0-.541l-4.256-2.473a1.034,1.034,0,0,0-.933,0L385.84,734.1a.287.287,0,0,0,0,.541l4.256,2.473a1.039,1.039,0,0,0,.934,0Zm20.3-3.019a1.04,1.04,0,0,0-.943,0l-4.275,2.469c-.265.153-.258.393,0,.541l4.256,2.473a1.024,1.024,0,0,0,.934,0l4.275-2.469c.265-.153.266-.4.011-.546Zm-21.377,4.717a.287.287,0,0,0,0,.541l4.256,2.473a1.037,1.037,0,0,0,.934,0l4.284-2.473a.287.287,0,0,0,0-.541l-4.256-2.473a1.04,1.04,0,0,0-.933,0Zm49.039.041c-.265.154-.257.394,0,.541l4.256,2.473a1.021,1.021,0,0,0,.934,0l5.529-3.193a.286.286,0,0,0,0-.54l-4.256-2.473a1.035,1.035,0,0,0-.933,0Zm-33.828-1.2a1.035,1.035,0,0,0-.933,0l-4.275,2.468c-.265.153-.267.4-.012.546l4.256,2.473a1.038,1.038,0,0,0,.942,0l4.275-2.469a.286.286,0,0,0,0-.54Zm27.051,4.034c.256-.148.258-.393-.006-.546l-4.247-2.469a1.024,1.024,0,0,0-.934,0l-4.284,2.473c-.256.148-.266.388,0,.541l4.247,2.469a1.038,1.038,0,0,0,.942,0Zm-48.419.678a.286.286,0,0,0,0,.54l4.256,2.473a1.035,1.035,0,0,0,.933,0l4.284-2.473a.286.286,0,0,0,0-.54l-4.256-2.473a1.036,1.036,0,0,0-.934,0ZM383,741.745a.286.286,0,0,0,0-.54l-4.255-2.473a1.037,1.037,0,0,0-.934,0l-4.284,2.473a.286.286,0,0,0,0,.54l4.256,2.473a1.036,1.036,0,0,0,.934,0Zm20.293-3.013a1.037,1.037,0,0,0-.934,0l-4.284,2.473a.287.287,0,0,0,0,.541l4.255,2.473a1.036,1.036,0,0,0,.934,0l4.284-2.473a.286.286,0,0,0,0-.54Zm-16.182,7.726,4.275-2.469c.265-.153.266-.4.011-.546l-4.256-2.473a1.039,1.039,0,0,0-.942,0l-4.275,2.469a.287.287,0,0,0,0,.541l4.256,2.473A1.042,1.042,0,0,0,387.109,746.458Zm-10.277-1.153c.265-.153.267-.4.012-.546l-4.256-2.473a1.038,1.038,0,0,0-.942,0l-4.275,2.469c-.265.153-.258.393,0,.541l4.256,2.473a1.022,1.022,0,0,0,.933,0Zm20.3-3.019a1.035,1.035,0,0,0-.933,0l-4.284,2.473a.287.287,0,0,0,0,.541l4.256,2.473a1.04,1.04,0,0,0,.933,0l4.284-2.473a.287.287,0,0,0,0-.541Zm27.051,4.034c.256-.147.258-.392-.006-.545l-4.247-2.469a1.021,1.021,0,0,0-.934,0l-4.284,2.473c-.256.148-.266.387,0,.54l4.247,2.469a1.038,1.038,0,0,0,.942,0ZM375.766,747a.285.285,0,0,0,0,.541l4.256,2.473a1.019,1.019,0,0,0,.933,0l4.275-2.469c.265-.153.258-.393,0-.541l-4.256-2.473a1.022,1.022,0,0,0-.933,0Zm14.247,4.33a1.037,1.037,0,0,0,.934,0l4.284-2.473a.287.287,0,0,0,0-.541l-4.256-2.473a1.042,1.042,0,0,0-.934,0l-4.284,2.473a.287.287,0,0,0,0,.541Zm-5.192-1.933a1.038,1.038,0,0,0-.942,0l-4.275,2.469c-.265.153-.258.393,0,.54l4.256,2.473a1.019,1.019,0,0,0,.933,0l4.276-2.468c.264-.153.266-.4.011-.546Zm27.042,4.039c.265-.153.258-.393-.006-.546l-4.247-2.468a1.007,1.007,0,0,0-.934,0l-4.275,2.468c-.264.153-.275.393-.011.546l4.247,2.469a1.042,1.042,0,0,0,.951,0Zm-60.691.678a.287.287,0,0,0,0,.541l4.256,2.473a1.04,1.04,0,0,0,.933,0l8.162-4.713a.286.286,0,0,0,0-.54l-4.256-2.473a1.035,1.035,0,0,0-.933,0Zm26.521,4.33a1.039,1.039,0,0,0,.942-.006l4.275-2.468a.287.287,0,0,0,0-.541l-4.256-2.473a1.039,1.039,0,0,0-.934,0l-4.275,2.469c-.264.153-.266.4-.011.546Zm29.96-1.5c-.265.154-.267.4-.011.546l4.255,2.473a1.04,1.04,0,0,0,.943,0l33.742-19.481a.287.287,0,0,0,0-.541l-4.255-2.473a1.037,1.037,0,0,0-.934,0Zm-50.365.724a.287.287,0,0,0,0,.541l4.256,2.473a1.036,1.036,0,0,0,.934,0l4.284-2.473a.287.287,0,0,0,0-.541l-4.255-2.473a1.042,1.042,0,0,0-.934,0Zm27.793,3.6a1.022,1.022,0,0,0,.933,0l4.275-2.469c.265-.153.276-.393.012-.546l-4.247-2.469a1.025,1.025,0,0,0-.943,0l-4.275,2.469c-.256.148-.266.388,0,.541Zm14.469-.719c.256-.148.258-.393-.006-.546l-4.247-2.469a1.021,1.021,0,0,0-.934,0L390.079,760c-.256.148-.267.388,0,.541l4.247,2.469a1.043,1.043,0,0,0,.942,0Zm-36.145.678a.286.286,0,0,0,0,.54l4.256,2.473a1.035,1.035,0,0,0,.933,0l8.162-4.712a.287.287,0,0,0,0-.541l-4.255-2.473a1.039,1.039,0,0,0-.934,0Zm36.837,0c-.265.153-.258.393,0,.54l4.256,2.473a1.02,1.02,0,0,0,.933,0l5.529-3.192a.287.287,0,0,0,0-.541l-4.256-2.473a1.034,1.034,0,0,0-.933,0Zm-24.6,7.114c-.256.147-.267.387,0,.54l4.247,2.469a1.038,1.038,0,0,0,.942,0l12.561-7.252c.256-.148.257-.393-.006-.546l-4.247-2.469a1.024,1.024,0,0,0-.934,0Zm12.273,0a.286.286,0,0,0,0,.54l4.256,2.473a1.036,1.036,0,0,0,.934,0l4.283-2.473a.286.286,0,0,0,0-.54l-4.256-2.473a1.035,1.035,0,0,0-.933,0Zm68.935-62.146a.286.286,0,0,0,0-.54l-4.256-2.473a1.034,1.034,0,0,0-.933,0l-8.162,4.712c-.265.153-.258.393,0,.54l4.255,2.473a1.021,1.021,0,0,0,.934,0Zm-24.6,7.114a.287.287,0,0,0,0-.541l-4.256-2.473a1.04,1.04,0,0,0-.933,0l-4.284,2.473a.287.287,0,0,0,0,.541l4.256,2.473a1.037,1.037,0,0,0,.934,0Zm4.112,4.712,4.284-2.473a.286.286,0,0,0,0-.54l-4.256-2.473a1.035,1.035,0,0,0-.933,0L431.184,715a.286.286,0,0,0,0,.54l4.256,2.473A1.034,1.034,0,0,0,436.37,718.016Zm32.717-4.717c.256-.148.267-.388,0-.541l-4.247-2.468a1.021,1.021,0,0,0-.934,0l-9.177,5.3c-.256.148-.267.388,0,.541l4.247,2.468a1.021,1.021,0,0,0,.934,0Zm-23.647,6.028a1.021,1.021,0,0,0,.934,0l4.275-2.469c.265-.153.258-.393,0-.54l-4.256-2.473a1.021,1.021,0,0,0-.934,0l-4.275,2.468c-.265.153-.258.393,0,.541Zm12.6.352c.256-.148.267-.387,0-.541l-4.247-2.468a1.021,1.021,0,0,0-.934,0l-4.284,2.473c-.256.147-.266.387,0,.54l4.247,2.469a1.019,1.019,0,0,0,.933,0Zm-.218,1.214c-.256.147-.267.387,0,.54l4.23,2.459a1.04,1.04,0,0,0,.933,0l12.208-7.048a.287.287,0,0,0,0-.541l-4.229-2.458a1.021,1.021,0,0,0-.934,0Zm-5.948,2.346c.265-.153.266-.388,0-.541l-4.247-2.469a1.007,1.007,0,0,0-.934,0l-4.275,2.469c-.265.153-.267.388,0,.541l4.247,2.468a1.007,1.007,0,0,0,.934,0Zm12.108,1.234c-.265.153-.258.393,0,.541l1.264.734a1.024,1.024,0,0,0,.942.006L471.3,722.8c.257-.148.258-.393,0-.546l-1.264-.735a1.042,1.042,0,0,0-.934,0Zm-4.152,5.741c-.265.153-.258.393,0,.541l1.263.735a1.025,1.025,0,0,0,.943,0l5.114-2.953c.256-.148.258-.393-.006-.546l-1.263-.734a1.037,1.037,0,0,0-.934,0Zm14.115-8.129c-.265.153-.258.393,0,.54l1.264.735a1.023,1.023,0,0,0,.942,0l5.114-2.953c.257-.148.258-.393,0-.546l-1.264-.734a1.037,1.037,0,0,0-.934,0Zm-12.836,2.887a.287.287,0,0,0,0-.541l-4.229-2.458a1.021,1.021,0,0,0-.934,0l-4.284,2.473c-.256.148-.266.388,0,.541l4.23,2.458a1.037,1.037,0,0,0,.934,0Zm-15.391,1.82c.256-.148.266-.388,0-.541l-4.247-2.468a1.02,1.02,0,0,0-.933,0l-4.276,2.468c-.265.153-.275.393-.011.546l4.247,2.469a1.024,1.024,0,0,0,.942,0Zm-38.092.734c.264-.153.266-.4.011-.546l-4.256-2.473a1.041,1.041,0,0,0-.942.006l-4.275,2.468c-.265.153-.258.393,0,.541L402.415,730a1.019,1.019,0,0,0,.933,0Zm42.126,3.484a1.038,1.038,0,0,0,.942,0l4.134-2.387.124-.1a.286.286,0,0,0,0-.54l-4.23-2.459a1.024,1.024,0,0,0-.934,0L445.506,728c-.256.148-.267.388,0,.541Zm-27.981-2.948a1.035,1.035,0,0,0-.933,0l-4.284,2.473a.286.286,0,0,0,0,.54l4.256,2.473a1.034,1.034,0,0,0,.933,0l4.284-2.473a.286.286,0,0,0,0-.54Zm21.825,6.5a1.023,1.023,0,0,0,.942,0l4.275-2.469a.29.29,0,0,0,0-.551l-4.247-2.468a1.025,1.025,0,0,0-.943,0l-4.275,2.468c-.265.153-.266.388,0,.541Zm7.092-2.469c-.265.153-.258.393,0,.541l4.256,2.473a1.021,1.021,0,0,0,.934,0l4.239-2.448c.265-.153.267-.4.012-.546l-4.256-2.473a1.039,1.039,0,0,0-.942,0Zm-8.032,3.56c.265-.153.258-.393-.006-.546l-4.247-2.469a1,1,0,0,0-.933,0l-4.275,2.469c-.265.153-.276.393-.012.546l4.247,2.468a1.042,1.042,0,0,0,.951,0Zm-20.625,4.273a1.02,1.02,0,0,0,.933,0l4.284-2.473c.256-.148.266-.388,0-.541L423,734.448a1.024,1.024,0,0,0-.934,0l-4.284,2.473c-.256.148-.266.388,0,.541Zm-32.875-1.74a.287.287,0,0,0,0-.541l-4.256-2.473a1.042,1.042,0,0,0-.934,0l-4.283,2.473a.287.287,0,0,0,0,.541l4.256,2.473a1.034,1.034,0,0,0,.933,0Zm26.718,5.294a1.021,1.021,0,0,0,.934,0l4.275-2.469c.264-.153.275-.393.011-.546L416.844,738a1.023,1.023,0,0,0-.942,0l-4.275,2.469c-.256.147-.267.387,0,.54Zm14.469-.719c.256-.148.258-.393-.006-.546l-4.247-2.468a1.02,1.02,0,0,0-.933,0l-4.284,2.473c-.256.148-.267.388,0,.541l4.247,2.469a1.04,1.04,0,0,0,.943,0Zm-20.634,4.279a1.026,1.026,0,0,0,.942-.006l4.275-2.469c.265-.152.267-.387,0-.54l-4.247-2.469a1.007,1.007,0,0,0-.934,0l-4.275,2.469c-.265.153-.275.393-.011.546Zm-6.157,3.554a1.021,1.021,0,0,0,.934,0l4.284-2.473c.256-.148.266-.388,0-.541l-4.247-2.469a1.022,1.022,0,0,0-.933,0l-4.284,2.473c-.256.148-.267.388,0,.541Zm-32.874-1.74a.287.287,0,0,0,0-.541l-4.256-2.473a1.042,1.042,0,0,0-.934,0l-4.275,2.469c-.265.153-.266.4-.011.546l4.255,2.473a1.04,1.04,0,0,0,.943,0Zm47.343,1.02c.265-.153.267-.4,0-.551l-4.247-2.469a1.023,1.023,0,0,0-.942,0l-4.275,2.469c-.265.153-.267.388,0,.541l4.247,2.468a1.025,1.025,0,0,0,.943.006ZM374.8,753.567l4.275-2.469a.286.286,0,0,0,0-.54l-4.256-2.473a1.036,1.036,0,0,0-.934,0l-4.275,2.468c-.265.153-.267.4-.011.546l4.256,2.473A1.041,1.041,0,0,0,374.8,753.567Zm22.6.587a1.02,1.02,0,0,0,.933,0l4.284-2.473c.256-.148.267-.388,0-.541l-4.247-2.468a1.021,1.021,0,0,0-.934,0l-4.284,2.473c-.256.147-.266.387,0,.54Zm-29.7,2.973a1.04,1.04,0,0,0,.933,0l4.284-2.473a.287.287,0,0,0,0-.541l-4.256-2.473a1.034,1.034,0,0,0-.933,0l-4.284,2.473a.287.287,0,0,0,0,.541Zm28.757-1.893c.256-.147.266-.387,0-.54l-4.247-2.469a1.02,1.02,0,0,0-.933,0l-4.284,2.473c-.256.148-.267.388,0,.541l4.247,2.468a1.021,1.021,0,0,0,.934,0Zm4.026,4.223a1.038,1.038,0,0,0,.942,0l4.284-2.473c.256-.148.257-.393-.006-.546l-4.247-2.469a1.021,1.021,0,0,0-.934,0l-4.284,2.473c-.256.148-.266.387,0,.54Zm-30.951,5.324c-.256.148-.266.388,0,.541l4.248,2.469a1.025,1.025,0,0,0,.933,0l9.425-5.442c.265-.153.266-.388,0-.541l-4.247-2.468a1.007,1.007,0,0,0-.934,0Zm24.555,0c-.265.153-.266.4-.011.546l4.255,2.473a1.04,1.04,0,0,0,.943,0l4.275-2.469a.287.287,0,0,0,0-.541l-4.256-2.473a1.042,1.042,0,0,0-.934,0Zm17.431-1.341a.6.6,0,0,0-.007,1.132L424.295,772a2.165,2.165,0,0,0,1.955,0l22.959-13.216a.6.6,0,0,0,.006-1.132l-12.785-7.431a2.15,2.15,0,0,0-1.955,0Zm-29.753,8.455a.286.286,0,0,0,0,.54l4.255,2.473a1.039,1.039,0,0,0,.934,0l4.284-2.473a.287.287,0,0,0,0-.541l-4.256-2.473a1.037,1.037,0,0,0-.934,0Z" transform="translate(-339.82 -620.043)"/><path class="r" d="M441.331,602.79c1.625-.939,2.946-.186,2.951,1.681l.2,71.637L337.544,737.852l-.2-71.637a6.461,6.461,0,0,1,2.932-5.079Z" transform="translate(-337.341 -602.386)"/><path class="r" d="M507.11,737.012a1.379,1.379,0,0,1-.814,1.138L403.277,797.628a4.318,4.318,0,0,1-3.918,0L338.4,762.2c-.064-.037-.111-.079-.168-.119a2.181,2.181,0,0,1-.2-.149,1.54,1.54,0,0,1-.22-.241l-.03-.044a1.166,1.166,0,0,1-.132-.258c0-.01-.006-.02-.009-.029a.951.951,0,0,1-.047-.284l.013,4.511v.024a.93.93,0,0,0,.018.158.914.914,0,0,0,.029.1c0,.01,0,.02.008.029s0,.016.007.024a1.071,1.071,0,0,0,.073.156c.015.026.035.052.052.078l.03.045c.01.014.017.029.029.043a1.617,1.617,0,0,0,.172.184c.006,0,.014.01.019.015a2.363,2.363,0,0,0,.2.148c.046.032.082.068.133.1l.034.021,60.956,35.423a4.311,4.311,0,0,0,3.918,0l103.02-59.478a1.381,1.381,0,0,0,.814-1.138Z" transform="translate(-337.388 -626.86)"/></g><g transform="translate(7.278 8.584)"><path class="s" d="M440.477,611.148l.181,63.741-97.136,56.082-.181-63.741Z" transform="translate(-343.34 -611.148)"/></g><path class="t" d="M440.482,613.171l-.006-2.022L343.34,667.23l.006,2.022Z" transform="translate(-336.062 -602.565)"/><path class="u" d="M441.451,602.19a2.43,2.43,0,0,1,.482-.1l.043,0a1.761,1.761,0,0,1,.473.025l.024.006a1.42,1.42,0,0,1,.425.16l-2.369-1.415-.016-.009a1.44,1.44,0,0,0-.147-.072,1.457,1.457,0,0,0-.155-.055c-.034-.01-.07-.017-.106-.025l-.023-.006c-.012,0-.024-.006-.036-.008a1.781,1.781,0,0,0-.178-.02,1.721,1.721,0,0,0-.195,0c-.021,0-.043,0-.065.007l-.043,0c-.037,0-.073.006-.11.011a2.216,2.216,0,0,0-.259.056c-.037.01-.075.027-.113.038s-.069.023-.1.036-.086.026-.131.045a3.623,3.623,0,0,0-.412.2L337.377,659.408a4.567,4.567,0,0,0-.553.384c-.058.047-.113.1-.17.149-.087.076-.176.146-.26.229-.038.038-.073.079-.11.118l-.1.1c-.037.04-.076.078-.112.119-.082.094-.162.191-.239.291-.027.034-.052.07-.079.106l-.04.056c-.025.034-.052.068-.077.1-.058.083-.115.168-.17.254s-.1.164-.152.249l-.011.021-.011.02c-.039.068-.079.137-.115.206s-.086.166-.127.25-.072.153-.106.231l0,.011-.007.013c-.038.088-.074.175-.107.263s-.069.185-.1.277c-.016.047-.029.093-.043.141l-.019.06c-.01.033-.021.066-.03.1-.031.113-.059.226-.083.338-.015.069-.024.137-.035.2-.007.035-.013.07-.018.106s-.013.065-.017.1a4.327,4.327,0,0,0-.038.576l.2,69.669a3.432,3.432,0,0,0,1.707,2.957l.668.425-.2-71.637a4.438,4.438,0,0,1,.055-.674c0-.035.011-.07.018-.106a5.431,5.431,0,0,1,.148-.643l.018-.058a6.655,6.655,0,0,1,.256-.7l.006-.012a7.216,7.216,0,0,1,.347-.687l.011-.02a6.975,6.975,0,0,1,.411-.628l.04-.054a6.605,6.605,0,0,1,.43-.517c.033-.035.065-.07.1-.1.119-.124.244-.236.37-.346.057-.05.113-.1.171-.151a4.558,4.558,0,0,1,.553-.384L440.8,602.476a3.353,3.353,0,0,1,.543-.25Z" transform="translate(-334.445 -600.658)"/></g><g transform="translate(208.316 141.486)"><g transform="translate(0 0.885)"><path class="v" d="M527.118,769.8a13.328,13.328,0,0,0-12.094-.008c-3.342,1.942-3.31,5.079.039,7.014a13.306,13.306,0,0,0,12.094-.009C530.485,774.863,530.467,771.734,527.118,769.8Z" transform="translate(-512.534 -720.438)"/><g transform="translate(2.344)"><path class="w" d="M518.515,776.4s-3.031-1.969-3.111-2.447.652-.995,1.162-.976,2.653.2,2.653.2l.687.779S521.135,776.884,518.515,776.4Z" transform="translate(-515.398 -721.28)"/><path class="w" d="M526.615,773.371s-3.031-1.968-3.112-2.446.652-.995,1.162-.976,2.654.2,2.654.2l.687.779S529.234,773.857,526.615,773.371Z" transform="translate(-516.871 -720.73)"/><path class="w" d="M517.972,743.121l-.088,24.923a3.063,3.063,0,0,0,2.977-.065s2.821-21.53,2.869-22.042c.044-.471.4,19.657.4,19.657a2.615,2.615,0,0,0,3.079-.359l1.569-23.845Z" transform="translate(-515.85 -715.538)"/><path class="x" d="M529.356,731.148l.169,4.382s3.44-1.815,3.351-4.472c-.02-.6-1.157-4.409-1.407-5.376C530.313,726.31,530.244,730.219,529.356,731.148Z" transform="translate(-517.936 -712.683)"/><path class="y" d="M520.376,720.532a7.863,7.863,0,0,0-2.926,1.631l.443,16.992s2.145,1.57,6.531.423c3.572-.935,4.512-2.439,4.512-2.439s-.081-7.875-.416-11.322a26.517,26.517,0,0,0-1.328-6.09,10.264,10.264,0,0,0-2.5-.137Z" transform="translate(-515.771 -711.571)"/><path class="x" d="M524.821,717.718l.1-3.321a.776.776,0,0,0,.692-.979c-.143-.915-1-.313-1.15-.044,0,0-.192-3.151-1.861-3.454s-2.362-.061-2.4.752-.1,3.654,0,4.71,0,1.6,1.523,1.563l.133,1.105s.691.645,2.828.123Z" transform="translate(-516.261 -709.794)"/></g></g><path class="z" d="M521.026,720.419c.011-.649.115-1,1.623-1.173s2.734-.576,2.887,0-.151.934-1.661,1.061S521.026,720.419,521.026,720.419Z" transform="translate(-514.078 -710.573)"/><path class="w" d="M522.773,713.316a.5.5,0,0,0-.289-.668.554.554,0,0,0-.565.238,4.516,4.516,0,0,0-.55,1.132c-.153-.133-.312-.259-.473-.382l.02-.3a2.414,2.414,0,0,0-.025-.736c-.124-.507-.655-.587-.91-.966a1.616,1.616,0,0,1,.13-1.726,2.806,2.806,0,0,1,1.477-1.039c1.987-.652,4.966.809,4.387,3.229-.332,1.39-.818,2.737-1.18,4.119-.047.182-.461.253-.64.2a1.306,1.306,0,0,1-.466-.306,7.368,7.368,0,0,1-1.6-2.092C522.134,714.094,522.741,713.423,522.773,713.316Z" transform="translate(-513.852 -708.713)"/><path class="x" d="M517.444,743.785a.478.478,0,0,0,.406.423c.244,0,.4-.247.51-.466l.205-.417a.671.671,0,0,0,.1-.359c-.013-.121-.09-.229-.1-.35-.01-.236.242-.4.308-.623.079-.268-.122-.531-.308-.74a2.1,2.1,0,0,0-.419-.391c-.641-.409-1.219.321-1.095.947.056.281.243.534.324.809A9.659,9.659,0,0,1,517.444,743.785Z" transform="translate(-513.353 -714.536)"/><path class="x" d="M516.6,739.554s-3.7-5.681-3.806-6.952,3.057-7.933,3.057-7.933l2.438,2.713-2.749,4.945,1.557,5.5Z" transform="translate(-512.581 -711.614)"/><path class="y" d="M517.75,730.046a8.455,8.455,0,0,0,.6-2.073,8.238,8.238,0,0,0-1.519-5.233c-.7.313-1.807,2.63-2.8,5.192C515.24,728.691,516.482,729.39,517.75,730.046Z" transform="translate(-512.806 -711.263)"/><path class="y" d="M532.174,725.372c-.939-2.721-2.173-5.395-2.818-5.611l.273,7.091C530.448,726.317,531.325,725.853,532.174,725.372Z" transform="translate(-515.592 -710.721)"/></g><g transform="translate(79.263 82.912)"><g class="c"><path class="aa" d="M357.676,681.59a6.323,6.323,0,0,0-2.869,4.971c0,1.828,1.3,2.572,2.888,1.654a6.35,6.35,0,0,0,2.877-4.982c-.006-1.828-1.3-2.561-2.9-1.643" transform="translate(-354.807 -645.136)"/><path class="y" d="M394.051,658.356l-28.523,16.467a1.358,1.358,0,0,0-.614,1.065V676c0,.389.28.548.619.353l28.523-16.468a1.348,1.348,0,0,0,.615-1.065v-.113c0-.39-.273-.552-.619-.353" transform="translate(-356.644 -640.969)"/><path class="y" d="M372.6,678.168l-7.059,4.076a1.36,1.36,0,0,0-.615,1.065v.106c0,.4.28.556.619.36l7.06-4.076a1.362,1.362,0,0,0,.614-1.071v-.106c0-.389-.279-.548-.619-.353" transform="translate(-356.647 -644.571)"/><path class="y" d="M396.163,663.052,377.369,673.9a1.465,1.465,0,0,0-.664,1.15c0,.418.3.591.668.38l18.793-10.85a1.462,1.462,0,0,0,.657-1.146c0-.425-.3-.594-.661-.385" transform="translate(-358.788 -641.822)"/><path class="y" d="M369.4,685.092l-3.8,2.193a1.469,1.469,0,0,0-.664,1.15c0,.425.3.595.668.381l3.8-2.193a1.456,1.456,0,0,0,.658-1.146c0-.418-.3-.594-.663-.385" transform="translate(-356.649 -645.829)"/><path class="aa" d="M357.728,699.948a6.32,6.32,0,0,0-2.869,4.971c0,1.828,1.3,2.565,2.888,1.646a6.336,6.336,0,0,0,2.877-4.975c-.006-1.828-1.3-2.561-2.9-1.642" transform="translate(-354.816 -648.474)"/><path class="y" d="M394.1,676.713,365.58,693.181a1.355,1.355,0,0,0-.614,1.064v.113c0,.39.28.548.619.353l28.523-16.468a1.345,1.345,0,0,0,.614-1.064v-.114c0-.389-.273-.551-.619-.353" transform="translate(-356.654 -644.306)"/><path class="y" d="M372.653,696.525l-7.059,4.076a1.35,1.35,0,0,0-.615,1.065v.106c0,.4.28.548.619.353l7.06-4.076a1.35,1.35,0,0,0,.614-1.065v-.106c0-.4-.28-.548-.619-.353" transform="translate(-356.656 -647.908)"/><path class="y" d="M396.215,681.41l-18.793,10.85a1.466,1.466,0,0,0-.664,1.142c0,.425.3.591.668.381l18.793-10.85a1.455,1.455,0,0,0,.658-1.146c0-.418-.3-.587-.662-.377" transform="translate(-358.797 -645.159)"/><path class="y" d="M369.454,703.45l-3.8,2.193a1.465,1.465,0,0,0-.664,1.15c0,.425.3.594.668.38l3.8-2.193a1.456,1.456,0,0,0,.658-1.146c0-.418-.3-.594-.663-.384" transform="translate(-356.659 -649.166)"/><path class="aa" d="M357.781,718.305a6.322,6.322,0,0,0-2.87,4.971c0,1.828,1.3,2.564,2.888,1.646a6.337,6.337,0,0,0,2.877-4.975c-.006-1.828-1.3-2.561-2.895-1.643" transform="translate(-354.826 -651.811)"/><path class="y" d="M394.155,695.07l-28.523,16.468a1.357,1.357,0,0,0-.614,1.064v.114c0,.39.28.548.619.353L394.159,696.6a1.351,1.351,0,0,0,.615-1.065v-.114c0-.389-.273-.551-.619-.353" transform="translate(-356.663 -647.643)"/><path class="y" d="M372.7,714.874l-7.059,4.076a1.362,1.362,0,0,0-.614,1.071v.106c0,.4.28.548.619.353l7.06-4.076a1.352,1.352,0,0,0,.615-1.065v-.106c0-.4-.28-.556-.619-.36" transform="translate(-356.666 -651.244)"/><path class="y" d="M396.267,699.759l-18.793,10.85a1.477,1.477,0,0,0-.664,1.15c0,.425.3.591.669.38l18.793-10.85a1.454,1.454,0,0,0,.658-1.146c0-.418-.3-.594-.662-.384" transform="translate(-358.807 -648.495)"/><path class="y" d="M369.506,721.807l-3.8,2.193a1.456,1.456,0,0,0-.664,1.15c0,.425.3.595.668.381l3.8-2.193a1.458,1.458,0,0,0,.658-1.146c0-.425-.3-.595-.662-.385" transform="translate(-356.668 -652.503)"/><path class="aa" d="M432.379,639.464l.017,6.143c6.468-3.734,11.726-.731,11.747,6.694l5.345-3.086c-.03-10.819-7.689-15.19-17.11-9.751" transform="translate(-368.909 -637.125)"/><path class="y" d="M428.6,639.984c-9.422,5.439-17.03,18.625-17,29.443.015,5.413,1.934,9.216,5.034,10.982l3.767-6.532c-2.128-1.206-3.445-3.817-3.455-7.537-.021-7.424,5.2-16.48,11.671-20.214l-.017-6.143" transform="translate(-365.132 -637.645)"/><path class="m" d="M446.83,651.9l-5.345,3.086c.021,7.433-5.2,16.488-11.671,20.222-3.237,1.869-6.164,2.047-8.292.835l-3.767,6.532c3.093,1.762,7.365,1.5,12.077-1.224,9.421-5.439,17.029-18.625,17-29.451" transform="translate(-366.25 -639.811)"/><path class="y" d="M394.029,713.453,363,731.366a1.348,1.348,0,0,0-.614,1.065v.113c0,.39.273.552.619.353l31.026-17.913a1.363,1.363,0,0,0,.621-1.068V713.8c0-.389-.279-.548-.624-.349" transform="translate(-356.185 -650.985)"/><path class="m" d="M356.762,738.8l-1.19.687a1.358,1.358,0,0,0-.615,1.064v.113c0,.39.279.548.619.353l1.19-.687a1.356,1.356,0,0,0,.614-1.065v-.113c0-.389-.28-.548-.619-.353" transform="translate(-354.834 -655.593)"/><path class="y" d="M444.464,684.333l-31.026,17.913a1.363,1.363,0,0,0-.621,1.069v.113c0,.389.28.548.625.349l31.026-17.913a1.35,1.35,0,0,0,.615-1.065v-.114c0-.389-.273-.551-.619-.353" transform="translate(-365.353 -645.692)"/><path class="m" d="M407.192,709.681l-1.184.683a1.35,1.35,0,0,0-.615,1.065v.114c0,.389.273.551.619.352l1.183-.683a1.349,1.349,0,0,0,.615-1.065v-.114c0-.389-.273-.551-.619-.352" transform="translate(-364.003 -650.3)"/></g></g><g transform="translate(49.817 41.469)"><g class="c"><path class="ab" d="M351.167,604.389l3.956-4.512a3.136,3.136,0,0,1-.024-.337,5.046,5.046,0,0,1,2.287-3.962c1.266-.732,2.3-.142,2.3,1.312a5.046,5.046,0,0,1-2.287,3.962,1.611,1.611,0,0,1-1.641.151L351.8,605.51a2.742,2.742,0,0,1,.024.337,5.046,5.046,0,0,1-2.288,3.962,2.334,2.334,0,0,1-.724.284l-5.248,11.173a1.819,1.819,0,0,1,.421,1.27A5.048,5.048,0,0,1,341.7,626.5c-1.266.731-2.3.142-2.3-1.312a4.127,4.127,0,0,1,.262-1.381l-4.871-2.975a4.111,4.111,0,0,1-.992.835,2.161,2.161,0,0,1-.992.311l-4.836,8.579a2.027,2.027,0,0,1,.269,1.075,5.047,5.047,0,0,1-2.288,3.962c-1.266.731-2.3.142-2.3-1.312a5.047,5.047,0,0,1,2.288-3.962,2.094,2.094,0,0,1,.992-.311l4.836-8.582a2.009,2.009,0,0,1-.268-1.073,5.047,5.047,0,0,1,2.287-3.962c1.266-.731,2.3-.142,2.3,1.312a4.108,4.108,0,0,1-.262,1.378l4.871,2.979a4.056,4.056,0,0,1,.992-.835,2.412,2.412,0,0,1,.724-.283l5.248-11.17a1.817,1.817,0,0,1-.421-1.273,5.046,5.046,0,0,1,2.288-3.958,1.6,1.6,0,0,1,1.641-.151M363.36,586.62l-43.475,25.1a2.356,2.356,0,0,0-1.065,1.849l.086,30.364c0,.678.483.952,1.073.611l43.475-25.1a2.358,2.358,0,0,0,1.069-1.848l-.087-30.365c0-.678-.485-.954-1.075-.613" transform="translate(-318.819 -586.474)"/><path class="o" d="M358.459,597.531a5.046,5.046,0,0,0-2.287,3.962,3.135,3.135,0,0,0,.024.337l-3.956,4.512a1.6,1.6,0,0,0-1.641.151,5.046,5.046,0,0,0-2.288,3.958,1.817,1.817,0,0,0,.421,1.273l-5.248,11.17a2.412,2.412,0,0,0-.724.283,4.056,4.056,0,0,0-.992.835l-4.871-2.979a4.108,4.108,0,0,0,.262-1.378c0-1.455-1.037-2.043-2.3-1.312a5.047,5.047,0,0,0-2.287,3.962,2.009,2.009,0,0,0,.268,1.073L328,631.96a2.094,2.094,0,0,0-.992.311,5.047,5.047,0,0,0-2.288,3.962c0,1.454,1.037,2.042,2.3,1.312a5.047,5.047,0,0,0,2.288-3.962,2.027,2.027,0,0,0-.269-1.075l4.836-8.579a2.161,2.161,0,0,0,.992-.311,4.111,4.111,0,0,0,.992-.835l4.871,2.975a4.127,4.127,0,0,0-.262,1.381c0,1.455,1.037,2.043,2.3,1.312a5.048,5.048,0,0,0,2.288-3.962,1.819,1.819,0,0,0-.421-1.27l5.248-11.173a2.333,2.333,0,0,0,.724-.284A5.046,5.046,0,0,0,352.9,607.8a2.74,2.74,0,0,0-.024-.337l3.956-4.508a1.611,1.611,0,0,0,1.641-.151,5.046,5.046,0,0,0,2.287-3.962c0-1.454-1.037-2.043-2.3-1.312" transform="translate(-319.892 -588.427)"/></g></g><g transform="translate(27.468 104.787)"><g class="c"><path class="ac" d="M299.253,686.437c-.19.11-.344.021-.344-.2a.753.753,0,0,1,.342-.592l1.447-.835c.19-.11.344-.021.344.2a.753.753,0,0,1-.342.592l-1.447.835m2.9-1.675c-.19.109-.344.021-.344-.2a.754.754,0,0,1,.342-.592l1.45-.837c.189-.11.344-.021.344.2a.753.753,0,0,1-.342.592l-1.449.837m-2.91-1.083c-.189.11-.344.021-.344-.2a.753.753,0,0,1,.342-.592l12.569-7.257c.19-.11.344-.025.344.2a.755.755,0,0,1-.342.592l-12.569,7.257m-.007-2.76c-.19.109-.344.021-.344-.2a.752.752,0,0,1,.342-.592l7.055-4.074c.192-.11.346-.023.347.195a.757.757,0,0,1-.344.594l-7.055,4.074M307.763,676c-.189.11-.344.021-.344-.2a.757.757,0,0,1,.342-.592l.881-.509c.19-.109.344-.021.344.2a.755.755,0,0,1-.342.592l-.881.509m2.42-1.4c-.19.11-.344.021-.344-.2a.755.755,0,0,1,.342-.592l5.757-3.324c.19-.11.344-.021.344.2a.753.753,0,0,1-.342.592l-5.757,3.324m-10.953,3.563c-.19.109-.344.021-.344-.2a.749.749,0,0,1,.342-.592l11.988-6.921c.19-.11.344-.025.344.2a.753.753,0,0,1-.342.592l-11.988,6.921m13.486-7.786c-.189.109-.344.021-.344-.2a.75.75,0,0,1,.343-.592l3.216-1.857c.189-.11.344-.025.344.2a.753.753,0,0,1-.342.592l-3.216,1.857m-17.929,11.4c-.553.32-1.006.062-1.007-.574a2.21,2.21,0,0,1,1-1.736c.556-.321,1.008-.063,1.01.575a2.211,2.211,0,0,1-1,1.735m23.177-17.8-25.681,14.827a1.711,1.711,0,0,0-.778,1.348l.035,12.495c0,.494.351.7.784.447L318,678.258a1.715,1.715,0,0,0,.778-1.348l-.035-12.495c0-.5-.351-.7-.784-.447" transform="translate(-291.504 -663.86)"/><path class="o" d="M312.855,671.906l-11.988,6.921a.749.749,0,0,0-.342.592c0,.218.155.305.344.2l11.988-6.921a.753.753,0,0,0,.342-.592c0-.221-.155-.306-.344-.2" transform="translate(-293.144 -665.315)"/><path class="o" d="M307.932,678.756l-7.055,4.074a.752.752,0,0,0-.342.592c0,.218.155.305.344.2l7.055-4.074a.757.757,0,0,0,.344-.594c0-.218-.155-.305-.347-.195" transform="translate(-293.146 -666.56)"/><path class="o" d="M313.455,678.239,300.886,685.5a.753.753,0,0,0-.342.592c0,.218.155.306.344.2l12.569-7.257a.755.755,0,0,0,.342-.592c0-.221-.155-.306-.344-.2" transform="translate(-293.147 -666.466)"/><path class="o" d="M302.343,689.458l-1.447.835a.753.753,0,0,0-.342.592c0,.218.155.306.344.2l1.447-.835a.753.753,0,0,0,.342-.592c0-.218-.155-.306-.344-.2" transform="translate(-293.149 -668.505)"/><path class="o" d="M312.177,677.1l-.881.509a.757.757,0,0,0-.342.592c0,.218.155.306.344.2l.881-.509a.755.755,0,0,0,.342-.592c0-.218-.155-.305-.344-.2" transform="translate(-295.04 -666.258)"/><path class="o" d="M320.011,671.95l-5.757,3.324a.755.755,0,0,0-.342.592c0,.218.155.306.344.2l5.757-3.324a.753.753,0,0,0,.342-.592c0-.218-.155-.306-.344-.2" transform="translate(-295.578 -665.322)"/><path class="o" d="M320.566,668.579l-3.216,1.857a.75.75,0,0,0-.343.592c0,.218.155.305.344.2l3.216-1.857a.753.753,0,0,0,.342-.592c0-.221-.155-.306-.344-.2" transform="translate(-296.14 -664.71)"/><path class="o" d="M295.286,682.9a2.211,2.211,0,0,0-1,1.736c0,.636.454.893,1.007.573a2.211,2.211,0,0,0,1-1.735c0-.638-.454-.9-1.01-.575" transform="translate(-292.01 -667.297)"/><path class="o" d="M305.892,687.409l-1.45.837a.754.754,0,0,0-.342.592c0,.218.155.305.344.2l1.449-.837a.753.753,0,0,0,.342-.592c0-.218-.155-.306-.344-.2" transform="translate(-293.794 -668.133)"/></g></g><g transform="translate(71.802 264.111)"><path class="ad" d="M403.528,922.581V892.013l-57.839-33.43v30.569Z" transform="translate(-345.688 -858.583)"/><path class="ae" d="M345.831,858.683l-.142.082v30.4l26.444-15.284Z" transform="translate(-345.688 -858.601)"/><g transform="translate(0 45.528)"><path class="ad" d="M403.528,978.224V947.656l-57.839-33.43v30.569Z" transform="translate(-345.688 -914.226)"/><path class="ae" d="M345.831,914.326l-.142.082v30.4l26.444-15.284Z" transform="translate(-345.688 -914.244)"/></g><g transform="translate(0 91.055)"><path class="ad" d="M403.528,1033.868V1003.3l-57.839-33.43v30.569Z" transform="translate(-345.688 -969.869)"/><path class="ae" d="M345.831,969.97l-.142.082v30.4l26.444-15.284Z" transform="translate(-345.688 -969.887)"/></g></g><g transform="translate(185.331 30.799)"><g class="c"><path class="af" d="M567.838,651.161l-41.7-24.075-.07,24.649,41.7,24.075.07-24.649" transform="translate(-492.009 -583.187)"/><path class="af" d="M571.96,687.1l-25.871-14.937-.026,9.158,25.871,14.937.026-9.158" transform="translate(-495.644 -591.382)"/><path class="af" d="M567.558,629.251l-7.97-4.6-.026,9.158,7.969,4.6.026-9.158" transform="translate(-498.098 -582.744)"/><path class="af" d="M498.557,596.3s2.944-11.279,7.161-8.844,5.054,12.028,8.369,13.942,3.5-3.77,5.546-2.587,2.06,7.41,4.2,8.646,3.657-3.863,7.137-1.854c4.3,2.482,6.793,13.332,6.793,13.332L498.557,596.3m42.094,3.034-44.861-25.9-.075,26.748,44.861,25.9.076-26.748" transform="translate(-486.491 -573.433)"/><path class="ag" d="M506.35,590.495c-4.217-2.435-7.161,8.844-7.161,8.844l39.205,22.635s-2.493-10.849-6.793-13.332c-3.48-2.009-5,3.087-7.137,1.854s-2.155-7.465-4.2-8.646-2.23,4.5-5.546,2.587-4.151-11.507-8.369-13.942" transform="translate(-487.123 -576.472)"/><path class="af" d="M504.877,640.556l.012-4.3.012-4.3,3.234,4.016L511.37,640l-3.247.28-3.247.275m2.631-14.563c-5.636-3.253-10.223-.644-10.242,5.837s4.539,14.374,10.175,17.628,10.228.642,10.246-5.839-4.539-14.37-10.179-17.627" transform="translate(-486.773 -582.734)"/><path class="ah" d="M506.593,633.6l-.012,4.3-.012,4.3,3.247-.275,3.247-.28-3.234-4.022-3.235-4.017" transform="translate(-488.464 -584.371)"/><path class="af" d="M494.087,660.521a5.038,5.038,0,0,1-2.28-3.95c0-1.455,1.034-2.041,2.3-1.313a5.036,5.036,0,0,1,2.284,3.958c0,1.449-1.034,2.036-2.3,1.306m15.97-1.452L484.494,644.31l-.052,18.6L510,677.663l-25.562-14.758.008-2.857,4.744-2.7,4.8,8.32,9.7-5.523,6.324,10.955.034-12.033" transform="translate(-484.442 -586.318)"/><path class="ag" d="M503.7,663.045l-9.7,5.523-4.8-8.321-4.744,2.7-.008,2.857L510,680.561l.019-6.561L503.7,663.045" transform="translate(-484.442 -589.215)"/><path class="ag" d="M495.739,657.621c-1.262-.728-2.292-.142-2.3,1.313a5.038,5.038,0,0,0,2.28,3.95c1.266.731,2.3.143,2.3-1.306a5.036,5.036,0,0,0-2.284-3.958" transform="translate(-486.078 -588.681)"/></g></g></g><g transform="translate(76.154 121.089)"><g transform="translate(0 75.462)"><g class="c"><path class="d" d="M156.122,758.114l-40.956,23.775L74.032,758.114l41.134-23.775Z" transform="translate(-74.032 -734.339)"/><path class="e" d="M165.261,763.4V979.569l-40.956,23.775V787.171Z" transform="translate(-83.171 -739.621)"/><path class="f" d="M115.166,787.171v216.173L74.032,979.569V763.4Z" transform="translate(-74.032 -739.621)"/></g></g><path class="l" d="M124.305,793.163l40.956-23.775V768.4l-40.956,23.775Z" transform="translate(-83.171 -665.069)"/><path class="m" d="M74.032,769.388l41.134,23.775v-.988L74.032,768.4Z" transform="translate(-74.032 -665.069)"/><path class="ai" d="M78.269,642.11,92.3,741.347l23.6,13.638,23.493-13.638,14.034-99.237Z" transform="translate(-74.802 -642.11)"/><g transform="translate(17.501 85.599)"><path class="o" d="M142.509,760.366,119.016,774l-23.6-13.638,23.6-13.638Z" transform="translate(-95.421 -746.728)"/></g><g transform="translate(13.939 10.767)"><path class="s" d="M145.088,681.515c-.156.095-.314.188-.472.282q-.538.323-1.09.637c-.169.1-.34.194-.511.29q-.628.351-1.272.693c-.11.058-.217.118-.326.175q-.808.425-1.638.831c-.142.07-.286.137-.429.206q-.631.3-1.275.6-.281.129-.565.255-.626.281-1.262.551c-.17.073-.338.146-.509.217q-.881.368-1.78.718c-.064.025-.13.048-.195.074q-.808.309-1.631.6c-.193.069-.388.136-.582.2q-.658.23-1.325.448c-.195.064-.39.128-.586.191-.692.22-1.389.434-2.095.637-.073.021-.146.04-.22.061-.641.182-1.29.355-1.942.522l-.576.145c-.69.17-1.384.334-2.084.486l-.115.025c-.733.158-1.473.3-2.216.439-.182.034-.365.065-.547.1-.848.15-1.7.289-2.559.41-.066.01-.133.017-.2.026q-1.233.169-2.482.3c-.169.017-.336.037-.506.053-.7.067-1.393.127-2.1.174l-.065,0q-1.02.068-2.049.1c-.247.009-.494.015-.742.021-.4.011-.805.02-1.208.024-.266,0-.532,0-.8,0q-.6,0-1.191-.012c-.276,0-.551-.011-.828-.019-.347-.011-.694-.025-1.042-.041-.288-.013-.577-.027-.866-.043-.349-.02-.7-.046-1.048-.071-.289-.021-.577-.042-.866-.067-.348-.03-.7-.065-1.046-.1-.287-.029-.574-.057-.862-.091-.356-.041-.712-.088-1.068-.135-.281-.037-.56-.072-.841-.112-.421-.061-.843-.13-1.264-.2-.232-.038-.465-.073-.7-.114-.538-.094-1.074-.2-1.612-.306-.126-.025-.251-.047-.377-.073a14.946,14.946,0,0,1-2.446-8.052l-.019,6.608a14.944,14.944,0,0,0,2.446,8.052l.05.011c.11.022.218.04.327.062.538.108,1.074.212,1.612.307.232.04.465.075.7.113.421.07.843.138,1.263.2l.186.029c.219.031.437.054.656.083.356.047.712.095,1.067.136.288.033.574.061.862.09.349.036.7.071,1.046.1.094.008.187.02.281.028.2.016.39.025.586.039.349.026.7.051,1.049.071.289.017.577.03.865.043.348.016.695.03,1.042.041.124,0,.25.011.375.015.151,0,.3,0,.453,0q.6.011,1.191.012c.267,0,.533,0,.8,0,.4,0,.806-.013,1.208-.024.173,0,.346,0,.519-.011.074,0,.149-.008.223-.011.69-.025,1.377-.059,2.062-.1l.05,0c.7-.047,1.4-.107,2.1-.174l.2-.017c.1-.01.2-.025.3-.036.833-.086,1.662-.183,2.485-.3.066-.009.133-.016.2-.026.859-.12,1.712-.26,2.559-.41.093-.016.189-.028.282-.045s.177-.036.266-.052c.743-.137,1.483-.281,2.215-.439l.115-.026c.7-.152,1.393-.316,2.083-.486q.29-.071.577-.145.978-.249,1.942-.521c.074-.02.148-.04.221-.061q1.058-.3,2.095-.637c.074-.024.151-.044.226-.069.121-.038.239-.082.359-.121q.668-.218,1.326-.448c.194-.068.389-.135.581-.2q.821-.293,1.628-.6c.066-.025.133-.049.2-.075q.9-.349,1.78-.717c.171-.071.34-.145.509-.217q.636-.271,1.262-.552l.565-.256q.644-.3,1.275-.6c.142-.069.287-.136.429-.205q.83-.409,1.637-.831c.111-.058.219-.119.33-.178q.643-.341,1.27-.691l.512-.29q.551-.315,1.09-.637c.1-.061.208-.119.308-.181.056-.034.108-.068.163-.1.508-.309,1.01-.622,1.5-.939l.019-6.609C146.1,680.894,145.6,681.206,145.088,681.515Z" transform="translate(-91.068 -659.87)"/><g transform="translate(0.019)"><path class="aa" d="M146.592,675.975c-13.228,8.578-33.115,14.2-53.054,10.059-7.215-11.538,2.424-23.075,17.189-30.765l22.734,7.564Z" transform="translate(-91.091 -655.269)"/></g><g transform="translate(3.25 2.319)"><path class="r" d="M143.3,676.228a69.158,69.158,0,0,1-21.143,8.3,64.8,64.8,0,0,1-25.355.539c-2.608-4.75-2.327-9.686.846-14.69,2.787-4.392,7.693-8.613,14.26-12.274l19.9,6.622Z" transform="translate(-95.04 -658.103)"/></g><g transform="translate(15.763 13.492)"><path class="y" d="M130.183,676.487l.013,2.816h-19.82l-.042-7.545h4.86l.029,4.729Z" transform="translate(-110.334 -671.759)"/></g></g><g transform="translate(13.939 131.394)"><path class="aj" d="M102.579,809.351,91.068,802.7V929.3l11.511,6.653Z" transform="translate(-91.068 -802.698)"/><path class="ak" d="M91.068,955.951l11.511,6.653V949.3Z" transform="translate(-91.068 -829.348)"/></g><path class="al" d="M115.166,787.171,74.032,763.4V979.569l41.134,23.775,40.956-23.775V763.4Z" transform="translate(-74.032 -664.159)"/></g><g transform="translate(415.474 215.906)"><g transform="translate(0 58.947)"><g class="c"><path class="d" d="M668.011,881.957l-89.439,51.92-89.829-51.919,89.829-51.92Z" transform="translate(-488.743 -830.038)"/><path class="e" d="M687.97,893.493v128.4l-89.439,51.92v-128.4Z" transform="translate(-508.702 -841.574)"/><path class="f" d="M578.572,945.413v128.4L488.743,1021.9v-128.4Z" transform="translate(-488.743 -841.574)"/></g><path class="l" d="M598.531,957.679l89.439-51.92v-1.34l-89.439,51.92Z" transform="translate(-508.702 -843.56)"/><path class="m" d="M488.743,905.761l89.829,51.919v-1.34l-89.829-51.919Z" transform="translate(-488.743 -843.561)"/></g><g transform="translate(40.483 78.843)"><g class="c"><path class="am" d="M630.88,876.889c-.007.069-.011.137-.024.2s-.026.11-.041.164-.033.129-.056.194-.043.1-.065.156c-.029.068-.059.136-.095.2-.026.048-.057.1-.087.143-.047.076-.1.151-.152.226-.033.044-.068.088-.1.13a3.519,3.519,0,0,1-.274.295c-.035.035-.068.07-.106.1-.061.056-.13.109-.2.163s-.117.1-.182.143-.151.1-.23.154-.159.108-.246.159l-54.594,31.726a10.066,10.066,0,0,1-9.133,0l-25.159-14.525a3.232,3.232,0,0,1-1.9-2.664l-.01,3.335a3.233,3.233,0,0,0,1.906,2.664l25.158,14.525a10.071,10.071,0,0,0,9.133,0l54.594-31.726.079-.047c.06-.036.111-.075.168-.112.079-.051.158-.1.231-.154s.122-.095.182-.143.135-.107.2-.163c.012-.011.027-.021.039-.033s.043-.048.067-.072a3.622,3.622,0,0,0,.273-.295c.018-.021.043-.042.06-.064s.029-.045.045-.066c.056-.074.1-.15.151-.225.02-.032.046-.063.064-.095.009-.016.015-.033.023-.049.036-.066.065-.133.094-.2.017-.039.04-.078.055-.117.006-.013.007-.027.012-.041.022-.064.038-.128.055-.193.011-.043.029-.086.038-.13,0-.012,0-.023,0-.035.012-.067.017-.136.024-.2,0-.044.013-.088.015-.132,0-.019,0-.038,0-.057l.01-3.334C630.9,876.764,630.886,876.826,630.88,876.889Z" transform="translate(-538.221 -858.417)"/><g transform="translate(0.01)"><path class="an" d="M628.993,869.974c2.528,1.46,2.542,3.831.03,5.291L574.43,906.991a10.066,10.066,0,0,1-9.133,0l-25.159-14.525c-2.528-1.46-2.541-3.831-.029-5.291L594.7,855.45a10.068,10.068,0,0,1,9.134,0Zm-55.875,36.26,54.594-31.726c1.791-1.041,1.781-2.736-.021-3.777l-2.267-1.308-3.42.093L604.649,859.5l.151-1.981-2.267-1.309a7.2,7.2,0,0,0-6.519,0l-54.594,31.726c-1.79,1.041-1.78,2.736.021,3.777L566.6,906.234a7.2,7.2,0,0,0,6.519,0" transform="translate(-538.233 -854.354)"/></g><g transform="translate(1.86 1.072)"><path class="ao" d="M628.1,870.969c1.8,1.041,1.812,2.736.021,3.777l-54.594,31.726a7.2,7.2,0,0,1-6.519,0l-25.159-14.525c-1.8-1.041-1.812-2.736-.021-3.777l54.594-31.726a7.2,7.2,0,0,1,6.519,0l2.267,1.309-.151,1.981,17.354,10.02,3.42-.093Z" transform="translate(-540.494 -855.664)"/></g><g transform="translate(1.86 1.072)"><path class="ao" d="M628.1,870.969c1.8,1.041,1.812,2.736.021,3.777l-54.594,31.726a7.2,7.2,0,0,1-6.519,0l-25.159-14.525c-1.8-1.041-1.812-2.736-.021-3.777l54.594-31.726a7.2,7.2,0,0,1,6.519,0l2.267,1.309-.151,1.981,17.354,10.02,3.42-.093Z" transform="translate(-540.494 -855.664)"/></g></g></g><g transform="translate(47.55 42.417)"><g class="ap" transform="translate(0 47.59)"><path class="v" d="M560.611,869.372c3.158,1.824,3.175,4.774.037,6.6a12.546,12.546,0,0,1-11.4.008c-3.159-1.824-3.189-4.782-.038-6.614A12.572,12.572,0,0,1,560.611,869.372Z" transform="translate(-546.858 -868)"/></g><g transform="translate(0.59)"><path class="w" d="M550.773,871.392s-.456.056-.541.232a12.433,12.433,0,0,0-.123,1.886,11.7,11.7,0,0,0,2.321,1.754c1.122.576,2.091.826,2.524.448s.166-.814-.758-1.564a9.57,9.57,0,0,1-1.814-2.756Z" transform="translate(-548.039 -821.026)"/><path class="w" d="M557.982,868.492s-.455.057-.54.232a12.561,12.561,0,0,0-.124,1.886,11.721,11.721,0,0,0,2.321,1.755c1.122.575,2.091.826,2.525.448s.165-.814-.758-1.564a9.54,9.54,0,0,1-1.814-2.757Z" transform="translate(-549.349 -820.499)"/><path class="x" d="M561.975,839.189s-.034.6-.057.713a7.236,7.236,0,0,0-.547,1.125.665.665,0,0,0,.262.46,3.5,3.5,0,0,0,.065.673c.055.113.567.041.624.069s.385.237.6.146a8.143,8.143,0,0,0,.9-.359,11.715,11.715,0,0,0-.14-3.365c-.092-.478-.516-11.523-.772-11.44C562.4,827.375,561.975,839.189,561.975,839.189Z" transform="translate(-550.086 -812.994)"/><path class="z" d="M563.4,827.366c-.227-1.092-.5-2.36-.744-3.235-.5-1.84-.868-3.269-1.942-3.3l-.367,6.24s.115.942.313,2.009A19.974,19.974,0,0,0,563.4,827.366Z" transform="translate(-549.9 -811.835)"/><path class="w" d="M550.061,842.861l-.083,23.5a2.887,2.887,0,0,0,2.808-.061s2.66-20.3,2.705-20.786c.042-.445.376,18.536.376,18.536a2.467,2.467,0,0,0,2.9-.339l1.48-22.487Z" transform="translate(-548.015 -815.543)"/><path class="z" d="M552.206,821.557a13.05,13.05,0,0,0-3.31,1.921l.969,15.642s2.023,1.48,6.159.4c3.369-.882,4.255-2.3,4.255-2.3s.308-7.686-.009-10.936a14.507,14.507,0,0,0-1.636-5.484,9.627,9.627,0,0,0-2.356-.129Z" transform="translate(-547.818 -811.802)"/><path class="w" d="M557.125,810.059a4.374,4.374,0,0,0-2.109-.173,2.982,2.982,0,0,0-2.968,2.46,6.458,6.458,0,0,0,.731,3.489c.626,1.426,1.06.908,1.06.908l3.622-1.46a4.043,4.043,0,0,0,1.114-.478c.443-.388.3-1.052.378-1.571a2.63,2.63,0,0,0-.168-1.93,2.9,2.9,0,0,0-1.353-1.121C557.328,810.135,557.226,810.094,557.125,810.059Z" transform="translate(-548.383 -809.836)"/><path class="x" d="M553.6,819.179l-.093-3.132a.731.731,0,0,1-.653-.922c.136-.863.943-.3,1.085-.042,0,0,.182-2.972,1.756-3.257s3.1.052,3.14.819.091,3.445,0,4.441-.871,1.4-2.309,1.363l.1,1.611s-.721.529-2.735.038Z" transform="translate(-548.536 -810.179)"/><path class="z" d="M556.568,820.35a1.074,1.074,0,0,1,.383.056,1.919,1.919,0,0,1,.7,1.271,4.537,4.537,0,0,1-.243,1.362l-1.3-1.176-.82,1.584a3.341,3.341,0,0,1-1.214-.629,4.58,4.58,0,0,1-1.125-1.315c.226-.573.379-.913.379-.913.053-.132.3-.193.3-.193a5.431,5.431,0,0,0,2.478,1.321S556.489,821.537,556.568,820.35Z" transform="translate(-548.554 -811.747)"/><path class="x" d="M549.671,841.956s.155.579.2.686.7.748.763.992a.665.665,0,0,1-.164.5,3.469,3.469,0,0,1,.072.671c-.03.122-.547.155-.6.194s-.329.31-.56.264a7.86,7.86,0,0,1-.954-.17,11.723,11.723,0,0,1-.542-3.324c-.007-.544.181-11.4.181-11.4.151.036,2.366.885,2.366.885Z" transform="translate(-547.636 -813.57)"/><path class="z" d="M550.514,830.862c.029-1.375.084-2.869.067-3.231-.061-1.23-.059-4.691-1.924-3.572-.753.452-.922,3.805-1.078,6.066A5.7,5.7,0,0,0,550.514,830.862Z" transform="translate(-547.579 -812.382)"/></g><path class="w" d="M559.329,812.837a1.111,1.111,0,0,0-.085-1.1,2.1,2.1,0,0,0-.883-.722c-.861-.417-3.271-.871-3.338.624-.033.746.611,1.986,1.5,1.831.382-.067.608-.425,1.029-.306.211.06.781.6.807.024A.785.785,0,0,0,559.329,812.837Z" transform="translate(-548.342 -809.977)"/><path class="w" d="M553.567,814.472a2.289,2.289,0,0,1,.8,1.49l.3.007c-.015-.4.015-.749,0-1.145a2.741,2.741,0,0,0,.638-2.349c-.073-.337-.274-.71-.618-.74s-.61.3-.757.62A3.951,3.951,0,0,0,553.567,814.472Z" transform="translate(-548.073 -810.18)"/></g><path class="aq" d="M520.666,757.994c.245,15.21,16.253,114.623,16.253,114.623l.023,0a2.477,2.477,0,0,0,1.305,1.579l25.159,14.525a7.2,7.2,0,0,0,6.519,0l54.594-31.726a2.286,2.286,0,0,0,1.334-1.87h0s9.263-60.972,13.782-97.127Z" transform="translate(-494.546 -757.994)"/><g transform="translate(79.53 38.67)"><g class="c"><path class="ac" d="M607.532,866.6c-.355.205-.639.043-.641-.364a1.4,1.4,0,0,1,.636-1.1l3.12-1.8c.354-.2.639-.042.64.365a1.393,1.393,0,0,1-.636,1.1l-3.119,1.8m-15.708,5.978c-.354.2-.639.043-.641-.365a1.393,1.393,0,0,1,.637-1.092l5.2-3c.346-.2.631-.038.632.361a1.389,1.389,0,0,1-.628,1.1l-5.2,3m-.009-3.077c-.354.2-.639.043-.64-.365a1.4,1.4,0,0,1,.636-1.1l12.5-7.217c.347-.2.632-.038.633.369a1.392,1.392,0,0,1-.628,1.1l-12.5,7.217m14.975-8.646c-.355.2-.639.043-.641-.365a1.4,1.4,0,0,1,.637-1.1l3.843-2.219c.355-.2.639-.042.641.365a1.4,1.4,0,0,1-.636,1.1l-3.844,2.219m7.043,2.108-.03-10.69,7.531-4.348.03,10.69-7.531,4.348m-22.027,3.451c-.354.2-.638.042-.64-.355a1.4,1.4,0,0,1,.636-1.1l3.845-2.219c.354-.2.639-.042.64.365a1.393,1.393,0,0,1-.636,1.092l-3.845,2.219m6.318-3.647c-.355.2-.639.042-.641-.356a1.4,1.4,0,0,1,.636-1.1l12.5-7.217c.354-.205.639-.042.64.364a1.393,1.393,0,0,1-.636,1.093l-12.5,7.217m-6.335-2.517c-.354.2-.639.043-.64-.356a1.392,1.392,0,0,1,.636-1.1l5.963-3.443c.354-.2.639-.042.64.365a1.39,1.39,0,0,1-.636,1.092l-5.963,3.443m-.009-3.077c-.354.2-.638.042-.64-.365a1.392,1.392,0,0,1,.636-1.092l23.3-13.453c.354-.2.639-.043.64.356a1.394,1.394,0,0,1-.636,1.1l-23.3,13.453M617.555,842.3c-.347.2-.639.043-.641-.365a1.4,1.4,0,0,1,.637-1.092l3.119-1.8c.354-.2.639-.043.64.356a1.394,1.394,0,0,1-.636,1.1l-3.119,1.8m-25.782,11.8c-.354.205-.639.034-.641-.364a1.4,1.4,0,0,1,.637-1.1l18.259-10.542c.354-.2.639-.043.64.365a1.408,1.408,0,0,1-.636,1.1L591.772,854.1m21.039-12.147c-.346.2-.631.03-.633-.369a1.393,1.393,0,0,1,.628-1.1l7.853-4.534c.355-.205.639-.043.641.364a1.408,1.408,0,0,1-.637,1.1l-7.853,4.534m-21.048,9.061c-.354.2-.639.043-.64-.365a1.391,1.391,0,0,1,.636-1.092l28.893-16.682c.354-.2.639-.043.64.356a1.4,1.4,0,0,1-.636,1.1l-28.893,16.682m-.391-4.48-.045-15.858,29.909-17.267.045,15.858-29.909,17.267M624.78,805.5l-37.03,21.379a3.98,3.98,0,0,0-1.806,3.128l.147,51.865c0,1.15.817,1.613,1.817,1.036l37.031-21.38a3.983,3.983,0,0,0,1.806-3.128L626.6,806.54c0-1.15-.817-1.614-1.817-1.036" transform="translate(-585.944 -805.255)"/><path class="o" d="M622.432,815.218l-29.909,17.268.045,15.858,29.909-17.268-.045-15.858" transform="translate(-587.14 -807.066)"/><path class="o" d="M621.8,838.989,592.91,855.671a1.391,1.391,0,0,0-.636,1.092c0,.407.286.569.64.365l28.893-16.682a1.4,1.4,0,0,0,.636-1.1c0-.4-.286-.561-.64-.356" transform="translate(-587.095 -811.372)"/><path class="o" d="M611.18,850.254,592.921,860.8a1.4,1.4,0,0,0-.637,1.1c0,.4.286.569.641.364l18.259-10.542a1.408,1.408,0,0,0,.636-1.1c0-.407-.286-.569-.64-.365" transform="translate(-587.097 -813.42)"/><path class="o" d="M626.49,842.751l-7.853,4.534a1.393,1.393,0,0,0-.628,1.1c0,.4.286.569.633.369l7.853-4.534a1.409,1.409,0,0,0,.636-1.1c0-.407-.286-.569-.641-.364" transform="translate(-591.773 -812.056)"/><path class="o" d="M616.232,850.469l-23.3,13.453a1.392,1.392,0,0,0-.636,1.092c0,.407.286.569.64.365l23.3-13.453a1.4,1.4,0,0,0,.636-1.1c0-.4-.286-.56-.64-.356" transform="translate(-587.099 -813.459)"/><path class="o" d="M627.551,846.523l-3.119,1.8a1.405,1.405,0,0,0-.637,1.092c0,.408.294.565.641.365l3.119-1.8a1.394,1.394,0,0,0,.636-1.1c0-.4-.286-.56-.64-.356" transform="translate(-592.825 -812.741)"/><path class="o" d="M598.9,866.464l-5.963,3.443a1.392,1.392,0,0,0-.636,1.1c0,.4.286.56.64.356l5.963-3.443a1.39,1.39,0,0,0,.636-1.092c0-.407-.286-.569-.64-.365" transform="translate(-587.101 -816.367)"/><path class="o" d="M615.119,868.688l-3.843,2.219a1.4,1.4,0,0,0-.637,1.1c0,.407.286.569.641.365l3.844-2.219a1.4,1.4,0,0,0,.636-1.1c0-.407-.286-.569-.641-.365" transform="translate(-590.433 -816.771)"/><path class="o" d="M605.474,873.147l-12.5,7.217a1.4,1.4,0,0,0-.636,1.1c0,.407.286.569.64.365l12.5-7.217a1.392,1.392,0,0,0,.628-1.1c0-.407-.286-.569-.633-.369" transform="translate(-587.106 -817.582)"/><path class="o" d="M615.3,876.221l-3.12,1.8a1.4,1.4,0,0,0-.636,1.1c0,.407.286.569.641.364l3.119-1.8a1.393,1.393,0,0,0,.636-1.1c0-.407-.286-.569-.64-.365" transform="translate(-590.598 -818.14)"/><path class="o" d="M598.183,882.071l-5.2,3a1.393,1.393,0,0,0-.637,1.092c0,.407.286.569.641.365l5.2-3a1.389,1.389,0,0,0,.628-1.1c0-.4-.286-.56-.632-.361" transform="translate(-587.108 -819.204)"/><path class="o" d="M596.807,875.493l-3.845,2.219a1.4,1.4,0,0,0-.636,1.1c0,.4.286.56.64.355l3.845-2.219a1.393,1.393,0,0,0,.636-1.092c0-.407-.286-.569-.64-.365" transform="translate(-587.104 -818.008)"/><path class="o" d="M613.185,864.927l-12.5,7.217a1.4,1.4,0,0,0-.636,1.1c0,.4.286.56.641.356l12.5-7.217a1.393,1.393,0,0,0,.636-1.093c0-.407-.286-.569-.64-.364" transform="translate(-588.508 -816.087)"/><path class="o" d="M627.524,857.409l-7.53,4.348.03,10.69,7.531-4.348-.03-10.69" transform="translate(-592.134 -814.737)"/></g></g></g><g transform="translate(140.744 211.532)"><path class="ar" d="M152.972,752.649v126.6l57.84,33.43L268.4,879.25v-126.6Z" transform="translate(-152.972 -752.648)"/><g transform="translate(0 64.245)"><g class="c"><path class="d" d="M268.4,864.6l-57.589,33.43L152.972,864.6l57.839-33.43Z" transform="translate(-152.972 -831.167)"/><path class="e" d="M281.251,872.024v126.6l-57.589,33.43v-126.6Z" transform="translate(-165.823 -838.594)"/><path class="f" d="M210.811,905.455v126.6l-57.839-33.43v-126.6Z" transform="translate(-152.972 -838.595)"/></g><path class="l" d="M223.662,913.88l57.589-33.43V879.06l-57.589,33.43Z" transform="translate(-165.823 -839.873)"/><path class="m" d="M152.972,880.45l57.839,33.43v-1.39l-57.839-33.43Z" transform="translate(-152.972 -839.874)"/></g><g transform="translate(67.091 85.079)"><path class="as" d="M250.075,887.085a13.331,13.331,0,0,0-12.094-.008c-3.342,1.942-3.31,5.079.039,7.014a13.305,13.305,0,0,0,12.094-.009C253.442,892.148,253.424,889.019,250.075,887.085Z" transform="translate(-235.065 -861.902)"/><path class="w" d="M253.4,913.4s-.438.055-.519.223a11.981,11.981,0,0,0-.119,1.811,11.272,11.272,0,0,0,2.229,1.685c1.077.553,2.008.793,2.424.43s.159-.781-.727-1.5a9.15,9.15,0,0,1-1.742-2.647Z" transform="translate(-238.205 -866.95)"/><path class="w" d="M255.944,907.992s-.437-.058-.559.084a12,12,0,0,0-.574,1.722,11.247,11.247,0,0,0,1.728,2.2c.9.808,1.74,1.277,2.235,1.032s.352-.715-.322-1.637a9.18,9.18,0,0,1-1.012-3Z" transform="translate(-238.577 -865.966)"/><path class="w" d="M238.707,885.919c-.034,2.048.231,5.3,1.288,6.026,1.61,1.106,8.226,6.187,8.226,6.187l1.8,10.454a2.257,2.257,0,0,0,2.866,0s-1.173-11.755-1.427-12.787-6.364-7.676-6.364-7.676Z" transform="translate(-235.649 -861.955)"/><path class="w" d="M245.351,884.6c-.553,1.973-.938,4.307-.042,5.224.97.993,11,3.986,11,3.986l-2.972,9.994a2.258,2.258,0,0,0,2.773.728s5.351-11.42,5.368-12.482-10.1-5.963-10.1-5.963Z" transform="translate(-236.753 -861.716)"/><g transform="translate(7.567 20.996)"><g class="c"><g transform="translate(7.342 6.061)"><path class="at" d="M263.011,889.8l-9.82,5.706a.113.113,0,0,0,.048-.1l9.82-5.707A.115.115,0,0,1,263.011,889.8Z" transform="translate(-253.191 -889.699)"/></g><g transform="translate(7.39 5.849)"><path class="at" d="M253.251,895.147l9.82-5.707v.212l-9.82,5.707Z" transform="translate(-253.25 -889.44)"/></g><g transform="translate(0 1.504)"><path class="au" d="M244.219,889.836l9.82-5.707,7.329,4.231-9.82,5.707Z" transform="translate(-244.219 -884.129)"/></g><g transform="translate(4.165 3.783)"><path class="w" d="M260.13,888.59c.148.085.156.227,0,.316l-7.378,4.287a.61.61,0,0,1-.546,0l-2.792-1.611c-.148-.086-.142-.227.006-.312l7.378-4.287a.585.585,0,0,1,.538,0Z" transform="translate(-249.308 -886.915)"/></g><path class="au" d="M253.7,894.212l3.045-5.377,9.82-5.707-3.045,5.377a.085.085,0,0,1-.031.036l-9.82,5.706A.076.076,0,0,0,253.7,894.212Z" transform="translate(-245.935 -882.443)"/><g transform="translate(0 5.707)"><path class="au" d="M254.792,889.266l.083.087a.592.592,0,0,1,.149.6l-3.045,5.377c-.115.248-.446.145-.534.093l-6.891-3.979a.739.739,0,0,1-.335-.578v-.094L251.547,895Z" transform="translate(-244.218 -889.266)"/></g><path class="au" d="M257.141,888l9.82-5.707.083.087a.591.591,0,0,1,.149.6l-9.82,5.707a.592.592,0,0,0-.149-.6Z" transform="translate(-246.567 -882.291)"/></g><g transform="translate(5.731 3.279)"><path class="w" d="M255.168,887.032c.065.038.069.1,0,.139l-2.438,1.416a.272.272,0,0,1-.239,0l-1.222-.706c-.065-.037-.062-.1,0-.137l2.438-1.416a.255.255,0,0,1,.236,0Z" transform="translate(-251.223 -886.299)"/></g></g><path class="x" d="M250.868,874.072s1.079,2.742,1.3,3.49,2.766,5.23,2.915,5.455,2.018,1.721,2.018,1.945a.749.749,0,0,1-.747.716c-.6.069-2.205-1.1-2.205-1.1s-.41,1.035-.579-.208.315-1.047-.1-1.682c0,0-2.689-1.8-3.324-4.12a8.622,8.622,0,0,1-.074-4.261Z" transform="translate(-237.675 -859.801)"/><path class="au" d="M251.521,873.38c-.5-2.3-1.535-5.311-2.523-5.43l.909,6.569A3.92,3.92,0,0,0,251.521,873.38Z" transform="translate(-237.52 -858.688)"/><path class="au" d="M240.75,868.647a12.519,12.519,0,0,0-3.178,1.844l.929,13.092s1.943,1.422,5.914.383c3.235-.847,4.085-2.209,4.085-2.209a94.778,94.778,0,0,0-.008-9.538c-.3-3.121-1.572-4.3-1.572-4.3a9.247,9.247,0,0,0-2.262-.124Z" transform="translate(-235.443 -858.656)"/><path class="w" d="M245.649,857.927a7.836,7.836,0,0,0-4.134.252c-2.041.764-.849,3.671-.249,5.04s1.018.871,1.018.871l4.446-1.793s.132-.138.046-1.994A2.661,2.661,0,0,0,245.649,857.927Z" transform="translate(-235.952 -856.835)"/><path class="x" d="M242.092,866.363,242,863.356a.7.7,0,0,1-.627-.886c.13-.828.906-.283,1.042-.04,0,0,.174-2.853,1.685-3.127s2.977.051,3.015.786.088,3.309,0,4.265-.836,1.348-2.217,1.309L245,867.21s-.693.508-2.626.036Z" transform="translate(-236.132 -857.099)"/><path class="w" d="M244.938,867.487a1.042,1.042,0,0,1,.368.054,1.845,1.845,0,0,1,.669,1.222,4.36,4.36,0,0,1-.234,1.307l-1.253-1.129-.787,1.521a3.21,3.21,0,0,1-1.166-.6,4.388,4.388,0,0,1-1.08-1.262c.216-.55.363-.877.363-.877.052-.126.29-.185.29-.185a5.225,5.225,0,0,0,2.38,1.269S244.862,868.628,244.938,867.487Z" transform="translate(-236.149 -858.604)"/><path class="au" d="M237.86,877.883c.4-1.019,1.285-3.477,1.042-4.767a2.589,2.589,0,0,0-1.8-2.021,19.174,19.174,0,0,0-2.129,5.03C235.941,876.7,236.892,877.3,237.86,877.883Z" transform="translate(-234.97 -859.26)"/><path class="w" d="M248.751,858.39a2.372,2.372,0,0,0-.421-.8c-1.014-1.241-2.487-.515-3.792-.74a6.464,6.464,0,0,0-.915-.219,2.129,2.129,0,0,0-2.015,1.16c-.057.134-.116.279-.168.429a2.384,2.384,0,0,0-.142.706,12.869,12.869,0,0,0,.272,1.456,5.87,5.87,0,0,0,.867,2.14c.117-.036.234-.064.351-.094a1.888,1.888,0,0,1,.2-.951,1.587,1.587,0,0,0,.155-1.487,2.046,2.046,0,0,0,1.825.28,3.03,3.03,0,0,1,1.652.4,1.8,1.8,0,0,0,1.654.059,1.546,1.546,0,0,0,.579-1.149A2.966,2.966,0,0,0,248.751,858.39Z" transform="translate(-236.12 -856.63)"/><path class="x" d="M235.993,877.9s-.678,3.471-.08,4.169,6.282,4.085,6.75,4.57,2.04,1.831,3.1,1.807,1.594.972,2.122,1.072.448-1.262.291-1.782c-.187-.622-1.458-.734-1.458-.734s1.37-.673-.778-.393l-1.24-.205-6.28-6.018.125-1.033Z" transform="translate(-235.097 -860.497)"/></g><g class="av" transform="translate(32.434 26.147)"><path class="aa" d="M201.155,845.5l-.016-6.015,4.09-2.361.017,6.015-4.091,2.361m15.573-8.99-.025-9.053,4.09-2.361.025,9.052-4.09,2.362m-15.589,2.976-.011-3.722,4.09-2.361.011,3.722-4.09,2.361m7.806,1.518-.03-10.541L213,828.107l.03,10.54-4.085,2.359m15.567-8.988-.04-14.262,4.09-2.362.04,14.263-4.09,2.361M216.7,827.46l-.016-5.606,4.09-2.361.016,5.606-4.09,2.361m-7.789,3.005-.018-6.531,4.085-2.359.018,6.532-4.085,2.358m15.557-12.709-.025-8.83,4.09-2.361.025,8.829-4.09,2.362M198.126,851.13c-.182.106-.33.022-.331-.182l-.08-28.417a.717.717,0,0,1,.328-.568c.178-.1.324-.02.325.191l.079,28.039,35.784-20.661c.183-.106.33-.021.331.188a.721.721,0,0,1-.328.563L198.126,851.13m7.037-37.156c-.361.208-.655.041-.655-.373a1.433,1.433,0,0,1,.65-1.128l10.443-6.029c.361-.208.655-.041.655.373a1.436,1.436,0,0,1-.65,1.128l-10.443,6.029m12.652-7.3c-.36.208-.654.041-.655-.373a1.434,1.434,0,0,1,.651-1.128l2.408-1.39c.361-.209.654-.041.655.373a1.437,1.437,0,0,1-.651,1.128l-2.408,1.39m-19.783,11.554,0-1.765,3.918-2.262,0,1.765-3.918,2.262m14.1-12.036a.476.476,0,0,1-.466.046.46.46,0,0,1-.189-.42l.015-.159.031-.156.062-.169.079-.159a1.33,1.33,0,0,1,.464-.476.491.491,0,0,1,.466-.061l.079.07.058.1.043.115.011.144a1.321,1.321,0,0,1-.187.637,1.382,1.382,0,0,1-.465.491m-6.978,4.029c-.361.209-.655.041-.655-.373a1.436,1.436,0,0,1,.65-1.128l5.057-2.919c.36-.208.654-.041.655.373a1.435,1.435,0,0,1-.65,1.128l-5.057,2.919m9-5.2c-.36.208-.654.041-.655-.373a1.435,1.435,0,0,1,.65-1.127l6.06-3.5c.361-.208.654-.041.655.373a1.436,1.436,0,0,1-.651,1.128l-6.06,3.5m-16.131,9.445,0-1.765,3.918-2.262,0,1.765-3.918,2.261m39.008-29.592-42.46,24.514a4.319,4.319,0,0,0-1.958,3.391l.128,45.038c0,1.243.884,1.744,1.97,1.118l42.461-24.515a4.306,4.306,0,0,0,1.958-3.385L239,786c0-1.243-.884-1.751-1.971-1.123" transform="translate(-192.612 -784.604)"/><path class="o" d="M199.177,830.254a.717.717,0,0,0-.328.568l.08,28.417c0,.2.148.287.331.182l36.108-20.846a.721.721,0,0,0,.328-.563c0-.209-.147-.294-.331-.188l-35.784,20.661-.079-28.039c0-.21-.147-.294-.325-.191" transform="translate(-193.746 -792.895)"/><path class="y" d="M207.123,848.8l-4.09,2.362.017,6.015,4.09-2.362-.017-6.015" transform="translate(-194.506 -796.274)"/><path class="y" d="M216.622,837.773l-4.085,2.359.03,10.541,4.085-2.359-.03-10.541" transform="translate(-196.234 -794.27)"/><path class="y" d="M226.145,834.1l-4.09,2.362.026,9.052,4.09-2.362-.026-9.052" transform="translate(-197.964 -793.601)"/><path class="y" d="M235.64,822.235l-4.09,2.362.04,14.263,4.09-2.362-.04-14.263" transform="translate(-199.691 -791.445)"/><path class="o" d="M207.11,844.248l-4.09,2.362.011,3.722,4.09-2.362-.011-3.722" transform="translate(-194.504 -795.447)"/><path class="o" d="M216.6,829.791l-4.085,2.359.018,6.531,4.085-2.359-.018-6.531" transform="translate(-196.23 -792.819)"/><path class="o" d="M226.126,827.244l-4.09,2.362.016,5.607,4.09-2.362-.016-5.607" transform="translate(-197.961 -792.356)"/><path class="o" d="M235.61,811.444l-4.09,2.361.025,8.83,4.09-2.362-.025-8.83" transform="translate(-199.685 -789.483)"/><path class="y" d="M203.136,816.179l-3.918,2.262,0,1.765,3.918-2.262-.005-1.765" transform="translate(-193.813 -790.344)"/><path class="y" d="M203.149,820.771l-3.918,2.262.005,1.765,3.918-2.262-.005-1.765" transform="translate(-193.815 -791.179)"/><path class="o" d="M212.846,810.485l-5.057,2.919a1.436,1.436,0,0,0-.65,1.128c0,.414.295.582.655.373l5.057-2.919a1.435,1.435,0,0,0,.65-1.128c0-.414-.295-.581-.655-.373" transform="translate(-195.253 -789.293)"/><path class="o" d="M216.318,809.137a1.33,1.33,0,0,0-.464.476l-.079.159-.062.169-.031.156-.015.159a.46.46,0,0,0,.189.42.476.476,0,0,0,.466-.046,1.382,1.382,0,0,0,.465-.491,1.32,1.32,0,0,0,.187-.637l-.011-.144-.043-.115-.058-.1-.079-.07a.491.491,0,0,0-.466.061" transform="translate(-196.803 -789.046)"/><path class="o" d="M224.849,803.426l-6.06,3.5a1.435,1.435,0,0,0-.65,1.127c0,.414.295.581.655.373l6.06-3.5a1.436,1.436,0,0,0,.651-1.128c0-.414-.295-.581-.655-.373" transform="translate(-197.253 -788.009)"/><path class="o" d="M218.244,811.277,207.8,817.307a1.433,1.433,0,0,0-.65,1.128c0,.414.295.581.655.373l10.443-6.029a1.436,1.436,0,0,0,.65-1.128c0-.414-.295-.581-.655-.373" transform="translate(-195.255 -789.437)"/><path class="o" d="M225.673,808.019l-2.408,1.39a1.434,1.434,0,0,0-.651,1.128c0,.414.3.581.655.373l2.408-1.39a1.437,1.437,0,0,0,.651-1.128c0-.414-.295-.582-.655-.373" transform="translate(-198.066 -788.844)"/></g></g><g transform="translate(67.435 352.75)"><g class="c"><path class="aw" d="M81.387,930.459,72.4,935.676l-9.025-5.216,9.025-5.217Z" transform="translate(-63.375 -925.243)"/><path class="e" d="M83.392,931.618v127.837l-8.986,5.217V936.835Z" transform="translate(-65.381 -926.402)"/><path class="f" d="M72.4,936.835v127.837l-9.025-5.216V931.619Z" transform="translate(-63.375 -926.402)"/></g><path class="j" d="M72.4,925.243l-9.025,5.217V1058.3l9.025,5.216,8.986-5.217V930.459Z" transform="translate(-63.375 -925.243)"/></g></g></svg>