<svg xmlns="http://www.w3.org/2000/svg" xmlns:xlink="http://www.w3.org/1999/xlink" width="1350" height="580" viewBox="0 0 1350 580"><defs><style>.a{fill:#413ad6;}.b{fill:#fff;}.c{fill:#0d6376;}.d{opacity:0.5;clip-path:url(#e);}.e{opacity:0.3;mix-blend-mode:multiply;isolation:isolate;}.f{fill:none;stroke:#000;stroke-miterlimit:10;stroke-width:0.3px;}.g{opacity:0.1;clip-path:url(#f);}.h{fill:#6abfae;}.i{filter:url(#c);}.j{filter:url(#a);}</style><filter id="a" x="0" y="0" width="1350" height="580" filterUnits="userSpaceOnUse"><feOffset dy="3" input="SourceAlpha"/><feGaussianBlur stdDeviation="30" result="b"/><feFlood flood-opacity="0.161"/><feComposite operator="in" in2="b"/><feComposite in="SourceGraphic"/></filter><filter id="c" x="0" y="0" width="1350" height="580" filterUnits="userSpaceOnUse"><feOffset dy="3" input="SourceAlpha"/><feGaussianBlur stdDeviation="30" result="d"/><feFlood flood-opacity="0.161"/><feComposite operator="in" in2="d"/><feComposite in="SourceGraphic"/></filter><clipPath id="e"><g class="j" transform="matrix(1, 0, 0, 1, 0, 0)"><rect class="a" width="1170" height="400" rx="10" transform="translate(275 57)"/></g></clipPath><clipPath id="f"><rect class="b" width="1170" height="400" rx="6" transform="translate(0 62.808)"/></clipPath></defs><g transform="translate(90 87)"><g class="i" transform="matrix(1, 0, 0, 1, -90, -87)"><rect class="c" width="1170" height="400" rx="10" transform="translate(90 87)"/></g><g class="d" transform="translate(-275 -57)"><g class="e" transform="translate(380.154 -202.609)"><path d="M869.366,397.263c-6.827-4.2-14.61-6.357-22.322-8.286-3.941-.986-7.9-1.914-11.8-3.05-4.173-1.215-8.264-2.7-12.432-3.94a104.615,104.615,0,0,0-25.6-4.406,97.9,97.9,0,0,0-11.154-.254,51.575,51.575,0,0,0-10.527,1.842c-14.381,4.106-26.593,14.1-35.762,25.654-8.286,10.444-14.677,22.191-21.981,33.3-7.281,11.076-15.737,21.76-27.364,28.519A75.814,75.814,0,0,1,641.56,476.7c-8.412-.891-16.819-2.042-25.265-.828a50.04,50.04,0,0,0-17.029,5.69c-10.316,5.692-18.269,14.92-23.628,25.31A84.025,84.025,0,0,0,566.6,541.8c-.48,11.706,1.727,23.4,5.465,34.463,3.7,10.958,9.153,21.991,17.757,29.941a35.169,35.169,0,0,0,13.667,8.038c6.116,1.827,12.079,1.252,18.274.225,18.293-3.032,36.519-6.643,55.038-8.024,9.586-.715,19.209-1.005,28.8-1.633,9.415-.615,18.772-.821,28.2-.717a218.157,218.157,0,0,0,26.4-.905,94.082,94.082,0,0,0,24.524-6.107c14.487-5.735,28.506-12.9,40.986-22.283A123.9,123.9,0,0,0,856.435,541a219.968,219.968,0,0,0,20.388-43.279,265.919,265.919,0,0,0,11.934-46.734c1.08-6.791,1.9-13.419.881-20.274a53.248,53.248,0,0,0-6.936-19.437,41.888,41.888,0,0,0-13.336-14.012c-.49-.311-.943.467-.454.777,11.88,7.528,18.874,21.721,20.167,35.465.669,7.116-.625,14.219-1.854,21.208q-2.026,11.523-5.085,22.833a254.889,254.889,0,0,1-16.566,44.943c-6.714,13.855-14.826,27.31-25.529,38.466s-23.612,20.013-37.345,27.052a209.86,209.86,0,0,1-21.34,9.421,91.324,91.324,0,0,1-25.165,5.241c-8.572.686-17.181.6-25.772.482-9.346-.125-18.637.345-27.96.967-9.361.625-18.755.83-28.1,1.619-8.784.74-17.52,1.949-26.222,3.347-8.784,1.412-17.537,3.007-26.313,4.465-6.4,1.063-12.5,1.651-18.783-.389-11.006-3.573-18.8-13.136-24.075-23.012-11.126-20.83-14.767-46.036-8.109-68.82,3.357-11.486,9.218-22.463,17.878-30.826a50.533,50.533,0,0,1,33.332-14.243c8.665-.324,17.2,1.392,25.822,1.89A74.986,74.986,0,0,0,706.9,454.09c17.282-19.267,25.924-45.435,46.471-61.92a64.61,64.61,0,0,1,22.4-12.133,50.411,50.411,0,0,1,10.761-1.841c3.795-.233,7.505.195,11.285.3a98.324,98.324,0,0,1,25.866,4.693c3.956,1.2,7.849,2.613,11.824,3.751,3.826,1.1,7.7,2,11.562,2.971,7.553,1.893,15.161,4.015,21.847,8.13C869.407,398.344,869.859,397.566,869.366,397.263Z"/><path class="f" d="M637.609,490.059c7.611-1.164,15.891.5,23.428,1.047a72.459,72.459,0,0,0,20.372-1.031c13.15-2.849,26.2-12.732,34.589-22.914,14.878-18.06,23.167-39.445,40.9-55.3a63.944,63.944,0,0,1,21.475-13.248c10.961-4.093,19.369-3.452,30.644-1.206,19.029,3.792,35.847,6.467,51.742,18.481,14.51,10.968,14.066,34.541,10.909,50.493-4.611,23.3-18.142,47.4-30.3,67.447-13.748,22.67-35.848,43.425-63.062,47.333a212.629,212.629,0,0,1-43.205,2.066c-11.351-.674-22.388-2.154-33.822-1.259-28.044,2.194-62.91,13.466-87.418-5.673-10.028-7.831-15.112-24.835-16.318-37.162C597.541,539.134,593.267,496.842,637.609,490.059Z"/><path class="f" d="M659.848,502.9c9.137-.005,14.494.073,23.523.031,11.126-.052,19.639-6.686,28.657-12.55,11.009-7.158,19.177-18.884,27.857-28.584,8.808-9.842,17.51-19.283,26.936-28.506,10.546-10.318,27.385-22.409,43.1-20.229,18.555,2.574,41.069,13.343,47.2,32.185,7.026,21.6-8.8,47.047-18.163,65.605-8.694,17.238-20.932,36.7-38.9,44.939-16.077,7.375-34.512,7.465-51.57,3.756-22.449-4.883-42.816-5.167-65.8-3.282-16.161,1.325-41.054,9.565-51.736-3.73C606.985,522.7,640.938,502.909,659.848,502.9Z"/><path class="f" d="M650.505,517.288c9.6-4.545,17.5-4.9,28.162-4.487,14.522.558,29.119-5.256,40.744-14.029,13.155-9.926,25.914-21.487,38.161-32.554,6.787-6.133,16.667-11.589,25.8-13.227,11.148-2,20.988,7.6,26.36,16.663,5.608,9.46,7.779,18.105,1.511,27.7-7.108,10.879-20.87,18.049-31.424,24.945A102.527,102.527,0,0,1,729.43,538.98c-18.831,1.24-36.718.873-55.369,4.794-6.24,1.312-12.483,3.276-18.56,3.287-8.369.016-15.619-6.254-16.019-14.613C639.239,527.357,641.495,521.555,650.505,517.288Z"/><path class="f" d="M774.79,468.283c-14.167,2.19-24.185,13.193-32.6,23.869-5.856,7.432-11.993,19.311-3.478,26.641a11.511,11.511,0,0,0,6.145,3.433c10.763,2.348,24.527-4.327,32.947-10.629,6.432-4.815,14.462-10.207,18.01-17.723C802.408,479.91,789.015,466.084,774.79,468.283Z"/><path class="f" d="M290.4,341.458c18.693-6.912,25.819-9.618,41.614,3.465,14.692,12.168,28.7,24.218,45.853,32.842,40.737,20.474,52.338-12.079,70.025-41.871,17.392-29.3,49.165-35.188,81.369-33.956,19.831.759,70.115-6.831,80.971,16.68,9.961,21.573-16.69,44.088-9.4,66.552,6.832,21.054,39.737,32.264,27.773,60.391-9.5,22.332-52.781,19.3-71.744,24.514-27.525,7.564-37.107,26.994-29.883,52.956,8.775,31.541,17.027,57.326,15.854,90.961-1.423,40.8-33.3,77.913-63.461,102.588"/><path class="f" d="M575.479,371.042c18.359,22.674,11.61,53.029-9.173,67.828-20.714,14.751-47.252,13.22-64.757,31.813-18.493,19.644-18.014,33.576-9.51,58.195,11.364,32.9,11.6,69.634-22.61,89.184-22.034,12.591-45.892,1.6-65.333-11.188-31.72-20.862-4.152-42.075,4.78-67.761,6.193-17.81-1.123-38.511,4.249-56.918,8.751-29.981,44.642-40.314,60.584-65.942,10.159-16.333,19.668-60.962,56.607-64.32A50.807,50.807,0,0,1,575.479,371.042Z"/><path class="f" d="M420.852,531.134c7.747-16.528,5.491-37.528,14.431-54.216,4.917-9.178,12.718-14.434,20.829-20.5,10.392-7.767,15.637-16.373,21.355-27.916,8.632-17.427,23.018-47.362,41.765-56.619,11.006-5.435,26.047-6.18,34.249,3.432,29.411,34.47-20.917,58.043-45.348,72.768-19.612,11.82-35.483,25.986-41.156,48.874-2.416,9.746-2.862,21.634-.186,31.316,2.97,10.746,9.436,24.212,9.037,35.618-.754,21.545-28.016,42.254-48.06,30.028C427.768,593.923,399.7,576.261,420.852,531.134Z"/><path class="f" d="M548.03,393.767c-3.863-20.4-27.7-14.181-38.463-3.984-7.7,7.3-15.062,17.332-17.991,27.7-1.784,6.315-1.6,17.863,6.6,18.494,5.919.455,14.81-2.632,23.21-7.632C533.947,422.749,550.917,409,548.03,393.767Z"/><path class="f" d="M449.842,487.939c3.087,12.424,3.727,24.38,6.207,36.739,2.778,13.846,8.755,26.129,6.724,40.6-1.968,14.024-16.852,21.418-28.932,13.349-17.137-11.447-8.3-30.785-1.886-45.751,3.988-9.311,7.647-19.745,7.979-29.893C440.441,487.469,447.243,477.475,449.842,487.939Z"/><path class="f" d="M305.447,387.525c8.011-5.927,14.847-9.953,25.107-10.363,18.122-.723,30.858,9.788,45.9,17.977,12.479,6.793,23.626,12.428,38.2,11.141,17.406-1.537,32.491-12.871,41.519-27.359,7.113-11.416,9.007-24.992,15.25-36.767,4.966-9.367,15.45-16.143,24.946-20.235,12.177-5.247,25.313-6.326,38.492-6.316,13.225.011,27.733-1.784,40.663,1.4,12.651,3.121,26.284,12.3,24.693,26.766-1.325,12.05-8.483,21.357-8.495,33.88-.013,13.621,4.5,24.411,13.139,34.761,6,7.2,14.371,19.513,8.957,29.147-7.8,13.879-31.952,15.156-45.411,15.639-36.385,1.306-61.3,20.109-61.3,43.143,0,4.186.142,8.14.376,11.807a146.427,146.427,0,0,0,7.527,37.184c5.51,16.442,8.618,32.3,8.618,50.3,0,26.727-14.219,50.4-31.438,69.82-10.825,12.21-24.358,22.987-40.878,38.195"/><path class="f" d="M300.277,410.089c12.4-4.485,39.575-7.483,52.469-3.066,9.849,3.375,19.648,10.991,27.224,18.015,6.728,6.237,15.817,11.932,18.607,21.275,3.352,11.222-8.469,18.575-12.713,27.528-4.818,10.168-.165,19.01,1.388,29.273,1.454,9.612,4.3,18.824-6.912,22.06-12.386,3.576-21.741-7.02-32.163-12.7-11.912-6.488-25.53-6.528-38.5-3.2"/><path class="f" d="M378.775,504.394c1.111-5.844,2.841-13.879-3.655-17.3-11.1-5.84-24.647,5.309-20.145,15.455C360.447,514.329,375.949,519.255,378.775,504.394Z"/><path class="f" d="M305.212,423.251c21.566-3.048,41.565-5.635,59.8,9.326,9.627,7.9,22.068,25.9,5.62,35.108-5.344,2.99-10.237,3.147-15.406,7.779-4.922,4.409-6.1,8.4-8.937,14.084-9.283,18.641-26.586-3.393-38.958-6.362"/><path class="f" d="M313.674,471.2c4.292,5.936,10.722,10.685,18.218,10.588,0,0,8.262,1.371,8.419-6.371.3-14.684,12.2-9.007,25.328-13.879,15.382-5.708-2.765-18.711-10.349-21.167-15.16-4.911-27.034-5.937-41.616.509"/><path class="f" d="M310.853,449.34c8.327,0,26.5-3.338,29.822,7.74,4.854,16.194-30.894,5.011-36.168,2.132"/><path class="f" d="M295.573,530.01c19.1,5.389,36,8.042,53.468,18.224,5.373,3.132,14.529,7.124,17.72,12.409,6.534,10.822.52,28.43,4.984,40.6,5.133,13.991,18.511,26.8,31.292,34.123,13.53,7.748,29.387,4.562,43.278,10.939,31.542,14.481-13.7,61.008-23.821,73.382"/><path class="f" d="M294.868,567.381c9.915-.005,21.262-.941,30.67,2.464,9.717,3.517,12.992,12.793,17.473,21.018,4.736,8.692,8.862,17.764,13.736,26.406,6.285,11.144,15.1,18.653,24.409,27.286,9.485,8.8,26.589,17.527,33.477,28.366,15.268,24.027-18.219,50.241-25.28,70.739"/><path class="f" d="M294.162,582.894c7.793-2.738,19.009.722,26.193,4.406,8.925,4.577,9.5,10.388,12.935,19.149,7.151,18.235,23.773,29.36,37.92,41.805,9.248,8.135,22.735,17.884,28.6,29.129,13.907,26.678-11.049,52.064-28.082,70.508"/><path class="f" d="M299.1,596.291c5.332,3.835,12.9,4.678,18.75,8.489,7.684,5.009,9.2,10.929,12.826,19.1,6.966,15.689,19.273,26.268,32.724,36.568,9.05,6.929,20.942,13.7,24.983,24.849,9.024,24.9-22.1,44.9-33.579,63.294"/><path class="f" d="M305.444,623.085c10.379-.522,18.654,12.495,22.473,20.39,6.523,13.485,15.874,20.7,26.978,30.351,8.877,7.715,21.788,15.286,21.164,28.48-.808,17.071-17.6,29.789-29.013,40.649"/><path class="f" d="M296.278,556.4c14.08-4.9,41.075,2.721,53.587,10.916,12.9,8.447,11.319,27.663,15.483,40.75,4.3,13.516,17.419,25.721,28.644,33.713,11.007,7.837,28.846,15.1,32.907,28.836,6.993,23.658-9.323,41.057-17.8,61.359"/><path class="f" d="M283.528,288.412c23.95,7.027,31.309,10.345,55.076,18.221,11.665,3.866,31.295,13.9,42.989,17.535,31.293,9.738,61.177-24.425,83.376-40.443,36.711-26.488,54.714-67.013,48.7-112.659"/><path class="f" d="M293.149,273.165c5.274,2.682,11.392,2.19,16.986,3.769,8,2.258,15.938,5.5,24.009,7.812,6.285,1.8,15.681,4.643,20.84-.468,8.641-8.561,3.542-23.831,16.313-30.625,10.838-5.766,17.97-1.922,23.7,6.9,10.281,15.813,18.138,34.183,37.2,18.16,11.866-9.976,23.187-20.7,35.193-30.686,7.462-6.205,17.89-12.176,22.681-20.792,6.649-11.958,4.441-27.746,4.441-40.807"/><path class="f" d="M294.635,261.949c14.4.294,32.263,9.344,46.192,2.839,16.373-7.646,16.253-30.74,37.361-32.777,6.707-.647,14.513-.832,20.072,3.393,5.953,4.524,7.887,12.647,13.383,17.585,13.29,11.94,27.832-9.081,38.923-16.3,6.785-4.416,16.735-10.416,21.681-17.049,7.661-10.273,5.177-26.266,5.175-38.452"/><path class="f" d="M290.92,250.732c8.6,4.049,27.255,3.357,37.125,1.006,5.083-1.211,9.371-4.375,13.216-7.724,8.1-7.051,13.239-16.141,23.131-21.024,11.861-5.855,31.7-7.135,42.276,2.3,5.082,4.534,6.964,9.763,14.176,11.81,8.4,2.385,13.443-2.514,20.373-7.166,6.578-4.415,13.178-9.227,17.629-16.012,7.619-11.613,3.491-25.725,2.972-38.717"/><path class="f" d="M394.023,283.4c-.064-9.284-8.066-27.685-18.881-16.416-4.888,5.093-5.315,13.648-4.221,20.857a14.942,14.942,0,0,0,.857,4.269c.036.145.069.3.106.441l.024-.084c1.336,3.4,4.055,6.424,8.584,8.649C394.069,307.791,394.088,292.736,394.023,283.4Z"/><path class="f" d="M546.56,180.377c2.039,5.054,5.511,9,7.52,14.185,3.759,9.706,5.923,20.617,11.532,29.574,12.448,19.881,42.844,22.865,60.374,36.857,10.967,8.753,21.072,21.9,24.458,35.741,3.855,15.754-5.094,33.8-6.445,49.749-1.412,16.668-3.469,43.1,15.858,51.25,15.136,6.382,36.489-1.575,48.806-10.189,14.588-10.2,27.11-23.786,42.816-31.927,8.1-4.2,15.146-6.874,18.22-15.825,2.445-7.116,2.136-10.739-5.038-12.876-6.227-1.854-10.883,1.246-14.752-5.024-3.329-5.395-.7-9.192,2.358-13.866,11.562-17.665,36.608-14,55.112-14.495,30.664-.823,59.5-5.91,89.268-13.1,15.34-3.706,24.483-5.923,45.186-14.03,23.873-9.348,47.609-25.467,49.513-53.108,1.052-15.278,12.061-34.51,15.764-48.388"/><path class="f" d="M568.251,183.385c4.145,11.689,4.909,26.356,14.77,35.3,10.851,9.845,32.191,10.756,45.6,14.828,31.024,9.426,61.606,27.874,55.307,64.806-3.476,20.386-16.051,36.239-16.583,57.361-.184,7.31,2,17.384,9.841,19.888,9.052,2.891,9.248-5.268,12.85-10.4,12.355-17.624,59.383-9.523,53.156-29.421-1.525-4.869-5.675-8.327-6.233-14.765-1.574-18.169,13.944-34.092,30.807-38.521,12.953-3.4,28.436-1.44,41.819-1.953,13.533-.518,27.1-2.714,40.56-4.114,20.95-2.18,39.942-9.515,59.866-15.563,12.147-3.688,24.565-7.707,35.495-14.307,26.965-16.28,22.71-41.88,29.534-69.215"/><path class="f" d="M616.374,178.468c2.811,8.333.947,17.671,4.7,25.8,6.339,13.735,22.109,16.141,34.439,22.117,17.9,8.677,34.129,27.671,38.583,47.21,2.047,8.977,2.873,21.236-.457,29.584-5.466,13.7-10.932,25.455-14.862,39.805-1.377,5.025-4.71,12.572,3.122,13.07,5.219.332,8.029-6,11.9-8.839,8.888-6.51,17.232-10.7,22.133-21.319,9.279-20.1,12.413-44.98,36.3-54.131,30.283-11.6,63.977-8.554,95.815-9.591,25.743-.839,57.43-9.2,79.748-22.353,9.96-5.87,18.159-13.668,23.48-24.075,5.546-10.849,3.3-23.653,8.023-34.408"/><path class="f" d="M643.142,182.778c1.278,37.03,56.143,36.647,63.607,72.782,2.741,13.274-1.66,25.77-2.94,38.616-.663,6.649-1.109,22.214,9,11.822,3.751-3.855,4.112-10.372,6.179-15.092,2.9-6.618,6.667-13.659,11.566-19.043,12.628-13.88,29.337-17.507,46.948-21.289,17.934-3.85,37.081-2.617,55.392-3.117,19.111-.523,36.451-2.861,54.716-8.736,15.446-4.968,30.709-8.958,42.858-20.582,5.713-5.465,9.769-12.708,12.9-19.907,4.3-9.862,3.141-20.44,6.2-30.313"/><path class="f" d="M1040.587,173.628c-6.139,16.318-8.617,33.485-16.194,49.518-9.75,20.634-28.32,36.315-47.288,48.677-26.487,17.262-74.069,27.2-74.136,65.836-.038,21.431,18.069,27.983,33.192,39.5,15.261,11.62,23.986,28.137,39.88,39.131,20.558,14.221,45.883,18.887,69.375,26.892,25.093,8.552,50.338,11.39,76.649,12.7"/><path class="f" d="M1054.925,177.67c-12.852,8.8-10.611,35.081-15.672,48.8-6.589,17.865-21.406,33.293-35.827,44.943-14.626,11.816-30.953,21.236-47.33,30.652-10.74,6.175-26.706,12.567-32.95,23.643-8.2,14.552-.842,16.685,9.863,22.992,13.751,8.1,24.83,19.686,33.884,32.885,13.048,19.024,23.143,28.71,46.528,35.573,31.888,9.359,64.494,12.023,97.552,13.6"/><path class="f" d="M1067.086,180.489c-14.916,16.863-10.149,37.921-16,57.17-8.585,28.256-37.818,50.618-62.453,64.259-9.378,5.193-50.794,24.272-44.435,37.87,3.473,7.425,18.163,7.086,24.032,13.006,8.491,8.565,9.859,21.942,17.4,31.572,13.908,17.772,37.108,21.6,58.022,26.644a354.714,354.714,0,0,0,66.69,9.658"/><path class="f" d="M1081.425,184.53c-12.2,11.624-12.833,42.9-14.814,57.654-2.194,16.35-8.338,29.692-18.973,42.451-9.935,11.918-22.137,19.274-35.731,25.979-11.615,5.729-29.042,9.9-38.042,19.583-9.79,10.531-2.784,12.042,7.624,16.381,12.812,5.341,11.76,12.245,18.349,23.631,20.776,35.9,86.569,37.478,117.63,18.383"/><path class="f" d="M1080.651,270.568c-2.911,18.68-28.99,36.272-42.606,47.471-11.683,9.608-21.619,16.493-15.17,32.288,4.548,11.139,19.418,22.275,31.954,23.107,26.769,1.778,48.815-30.525,66.7-46.13"/><path class="f" d="M882.041,330.04c5.922-7.9,1.423-14.328-6.166-19.248-8.456-5.482-19.413-4.939-29.215-4.6-11.983.421-25.474,3.53-36.937,7.054-7.079,2.177-15.245,3.128-15.726,11.891a16.725,16.725,0,0,0,1.723,8.1c2.956,9.881,12.174,19.118,21.732,21.313C817.452,354.551,853.007,368.769,882.041,330.04Z"/><path class="f" d="M824.4,348.421c10.455,3.165,19-.286,27.634-5.935,6.717-4.4,13.336-8.93,13.541-17.7.339-14.523-23.648-11.993-32.97-10.529-8.855,1.39-31.6,5.423-27.44,16.785C805.167,331.047,808.059,343.475,824.4,348.421Z"/><path class="f" d="M591.595,265.812c-7.2-5.174-15.676-8.8-23.454-13.163-7.127-4-10.878-10.3-15.291-16.358q-.4-.686-.8-1.372c-3.077-5.173-6.639-12.769-12.941-14.578-12.5-3.59-18.028,10.139-20.335,19.823-4.09,17.166-2.121,37.349,16.791,44.209,11.552,4.191,23.541,4.048,35.64,3.938a38.8,38.8,0,0,0,18.312-5.043C596.963,279.033,599.054,271.169,591.595,265.812Z"/><path class="f" d="M543.453,274.744c6.68,2.928,10.448,4.088,16.087,4.467,4.541.306,9.249.5,13.086-2.276,2.7-1.952,4.415-4.009,4.246-7.51-.16-3.308-3.389-4.855-6.021-6.243-6.467-3.41-14.465-5.908-18.708-12.258-3.361-5.028-4.972-10.715-8.866-15.423-2.755-3.331-5.548-6.718-10.345-6.049-5.019.7-7.551,6.482-8.711,10.786-1.923,7.139-.4,14.737,3.14,21.065C527.361,261.3,533.419,270.346,543.453,274.744Z"/><path class="f" d="M1106.091,505.42c-29.861-2.943-65.419-10.236-91.066-26.242-15.786-9.852-30.935-15.6-48.62-20.639-12.852-3.664-26.732-12.049-32.278,2.4-5.642,14.7,4.238,29.416-4.918,45.4-7.751,13.534-17.6,18.234-17.512,35.545.087,17.459,6.773,24.894,21.3,31.977,11.071,5.4,24.6,7.495,34.456,15.363,10.883,8.687,17.133,22.119,25.476,32.944,29.443,38.2,78.8,49.506,125.093,51.23"/><path class="f" d="M1095.59,546.51c-27.421,12.167-60.671-26.558-78.525-41.884C1002.751,492.339,989.8,480.26,972,473.163c-5.629-2.244-18.157-6.4-23.8-2.551-8.928,6.092,1.288,18.563,4.546,25.4,4.748,9.968,10.51,23.18,6.8,34.574-2.78,8.543-15.8,16.976-11.679,27.088,3.01,7.39,18.664,10.292,24.589,13.106a57,57,0,0,1,14.778,10.2c8.585,8.425,9.754,20.136,15.813,29.945,6.539,10.586,18.492,20.028,29.624,25.808,7.917,4.11,16.218,6.007,25.038,7.28,8.059,1.164,24.7,5.922,32.079.4"/><path class="f" d="M1082.738,565c-4.884-3.295-11.88-2.958-17.454-5.16-5.7-2.251-11.447-5.995-16.609-9.34-7.781-5.043-14.058-10.89-21.031-17-10.384-9.1-19.52-20.348-30.948-27.93-7.369-4.889-18.68-14.27-28.07-13-3.079,17.973,41.687,28.784,27.3,51.732-2.679,4.274-9.786,6.572-10.936,11.963-1.552,7.278,6.493,11.721,10.749,16.839,9.861,11.86,12.35,27.821,21.356,40.093,15.592,21.246,45.264,18.542,68.792,20.123"/><path class="f" d="M1071.842,577.422c-8.109-3.767-15.525-5.63-22.426-10.992-6.008-4.668-11.84-9.747-17.838-14.329-7.045-5.382-21.188-9.757-23.322,3.612-1.669,10.462,7.718,25.843,12.8,34.507,12.768,21.786,38.135,27.951,61.915,28.97"/><path class="f" d="M1095.026,489.841c-26.394.538-41.82-5.55-65.56-17.724-26.293-13.483-26.293-13.483-56.265-28.133-11.414-5.58-37.622-16.28-47.44-2.863-6.752,9.227-.9,23.146-2.758,33.393-5.418,29.852-39.982,54.891-26.86,88.279,6.127,15.589,24.832,21.25,39.357,27.086,13.095,5.262,23.482,12.879,30.689,25.15,32.957,56.113,94.672,75.676,157.129,81.849"/><path class="f" d="M514.344,718.338c24.038-10.632,41.729-31.347,63.9-45.11,30.322-18.821,67.6-17.016,101.919-21.208,34.089-4.164,64.53-12.07,98.47-27.544,12.713-5.8,24.749-12.088,37.762-16.927,16.515-6.142,34.676-6.457,52.108-6.077,22.2.485,71.183,22.687,59.771,53.3-4.8,12.881-16.488,6.359-22.913,13.989-7.515,8.925,6.191,16.121,12.9,18.908,17.124,7.117,38.541,1.628,56.539,4.165,14.663,2.067,29.714,6.21,43.991,10.12,17.263,4.726,34.087,13.286,51.073,17.379"/><path class="f" d="M540.09,719.328c11.715-8.084,20.081-20.173,32.683-27.56,10.752-6.3,23.361-10.031,35.672-11.851,49.48-7.314,101.229.318,147.67-21.574C787.922,643.349,829.1,618.862,866.34,625.3c14.107,2.438,17.461,9.911,7.529,19.738-8.817,8.725-18.834,14.661-16.754,28.937,2.107,14.471,18.19,21.517,30.492,25.18,11.354,3.381,22.718,5.781,33.777,10.387,13.943,5.806,29.063,16.568,44.5,17.711"/><path class="f" d="M588.611,712.4c26.183-21.013,67.2-14.348,98.731-15.6,21.24-.846,46-2.361,64.629-14.009,15.2-9.505,27.323-23.185,43.884-30.881,17.444-8.106,42.678-14.57,46.3,10.047,1.161,7.887-.98,14.652,2.826,22.152,7.559,14.9,28.386,19.523,42.676,25.324"/><path class="f" d="M734.174,707.446c17.089,1.821,29.453-16.481,40.825-26.953,7.015-6.46,26.415-17.861,37.179-14.653,10.344,3.084,6.881,11.7,9.042,19.724,5.149,19.121,19.247,21.912,35.742,29.8"/><path class="f" d="M770.812,713.387c7.591-6.226,21.744-31.7,32.8-29.832,9.665,1.637,12.145,20.087,14.732,27.852"/><path d="M954.21,644.836a15.364,15.364,0,0,0-4.907,6.156c-1.242,2.553-2.271,5.277-4.263,7.366-3.924,4.118-10.312,4.45-14.2,8.648-2.684,2.9-5.262,8.359-1.6,11.553,2.081,1.816,5.242,2.191,7.886,2.39,1.628.123,3.263.129,4.9.1,1.906-.037,3.795.081,5.7.118a131.046,131.046,0,0,0,19.839-1.035c4.756-.64,9.707-2.067,13.555-5.04a12.556,12.556,0,0,0,5.044-11.423A21.418,21.418,0,0,0,980.71,652.2c-6.065-7.028-17.688-13.185-26.5-7.368-.482.318-.031,1.1.454.778,7.481-4.939,17.205-.609,23.1,4.843,5.947,5.5,11.114,15.585,4.349,22.543-3.2,3.291-7.846,4.946-12.253,5.836-5.459,1.1-11.261,1.235-16.812,1.4-3.239.093-6.462-.138-9.693-.12-3.309.019-6.632.177-9.881-.6-2.451-.587-4.919-1.826-5.139-4.627-.183-2.342,1.06-4.675,2.468-6.459,3.6-4.562,9.877-5.014,14.119-8.71,4.463-3.89,4.779-10.628,9.739-14.1C955.135,645.284,954.686,644.5,954.21,644.836Z"/><path class="f" d="M711.278,406.078c-4.053-2.612-12.344.636-16.233,2.151-8.285,3.228-15.364,3.288-23.832,5.223-6.6,1.51-10.513,5.8-11.485,12.274-1.023,6.81.609,12.944-1.928,19.618-1.495,3.933-7.394,9.53-2.352,12.651,5.387,3.335,28.25-8.855,34.343-13.484,8.2-4.623,15.334-10.574,19.671-18.193C712.41,421.137,716.981,409.754,711.278,406.078Z"/><path class="f" d="M575.259,610.867c.481.31.943.627,1.369.942,9.525,7.057,15.753,12.4,26.964,16.115,12.607,4.175,10.262,14.391.328,21.047-8.791,5.889-22.837,10.428-33.737,7.271-12.225-1.741-15.895-12.358-12.167-27.637.981-4.018,1.227-15.362,3.881-18.45C561.9,610.155,565.593,603.75,575.259,610.867Z"/><path class="f" d="M583.319,625.513c-2.506-2.7-4.942-4.94-8.7-5.375-9.353-1.082-12.151,10.583-10.717,17.883,1,5.1,5.652,7.228,10.568,7.424,6.988.949,17.213-1.821,17.383-8.215C591.963,633.149,585.868,628.259,583.319,625.513Z"/><path class="f" d="M765.914,195.57c-16.659,5.064-34.458,20.013-36.408,38.338-.425,4-.819,8.719,3.028,11.036,6.966,4.2,15.623-3.371,21.31-6.221,11.5-5.764,25.777-5.987,38.417-6.287,14.633-.348,28.779-.989,43.291-3.371,17.4-2.855,34.926-5.417,49.774-15.387,9.17-6.156,15.649-13.12,22.359-21.663"/><path class="f" d="M789.913,195.57c-8.469,5.534-21.269,8.5-27.5,16.788-6.2,8.246,5.38,8.353,11.092,7.377,8.422-1.437,16.1-2.776,24.8-2.843,13.115-.1,26.136.72,39.077-1.8,15.062-2.93,35.493-6.034,43.2-21.747"/></g><g class="e" transform="translate(-322.846 -183.866)"><g transform="translate(285.972 167.248)"><g transform="translate(265.418 199.132)"><path d="M850.546,396.018c-6.4-3.941-13.7-5.962-20.935-7.771-3.7-.925-7.409-1.8-11.068-2.86-3.914-1.14-7.75-2.533-11.659-3.7a98.113,98.113,0,0,0-24.011-4.132,91.82,91.82,0,0,0-10.461-.238,48.371,48.371,0,0,0-9.873,1.728c-13.487,3.851-24.94,13.22-33.539,24.06-7.771,9.795-13.765,20.812-20.615,31.234-6.828,10.388-14.759,20.408-25.663,26.747a71.1,71.1,0,0,1-45.824,9.434c-7.889-.836-15.774-1.915-23.695-.777a46.931,46.931,0,0,0-15.971,5.336c-9.675,5.338-17.134,13.993-22.16,23.737a78.8,78.8,0,0,0-8.477,32.753,89.967,89.967,0,0,0,5.125,32.321c3.471,10.277,8.584,20.624,16.653,28.08a32.983,32.983,0,0,0,12.818,7.539c5.736,1.713,11.328,1.174,17.138.211,17.156-2.844,34.25-6.23,51.618-7.525,8.99-.671,18.015-.943,27.014-1.531,8.83-.577,17.605-.77,26.451-.672a204.607,204.607,0,0,0,24.756-.849,88.235,88.235,0,0,0,23-5.728c13.587-5.379,26.734-12.1,38.439-20.9a116.2,116.2,0,0,0,28.812-31.7,206.3,206.3,0,0,0,19.121-40.589,249.4,249.4,0,0,0,11.192-43.83c1.013-6.369,1.779-12.585.826-19.014a49.939,49.939,0,0,0-6.5-18.229,39.286,39.286,0,0,0-12.507-13.141c-.46-.292-.884.438-.426.729,11.142,7.06,17.7,20.371,18.914,33.261.627,6.674-.586,13.335-1.739,19.89q-1.9,10.807-4.769,21.414a239.048,239.048,0,0,1-15.537,42.15c-6.3,12.994-13.9,25.613-23.943,36.076s-22.145,18.769-35.024,25.371a196.8,196.8,0,0,1-20.014,8.835,85.646,85.646,0,0,1-23.6,4.915c-8.039.643-16.113.56-24.17.452-8.765-.117-17.479.324-26.222.907-8.779.586-17.59.778-26.357,1.518-8.238.694-16.431,1.828-24.592,3.139-8.238,1.324-16.447,2.82-24.678,4.188-6,1-11.723,1.548-17.616-.365-10.322-3.351-17.631-12.32-22.579-21.582-10.435-19.536-13.849-43.175-7.605-64.543,3.148-10.772,8.645-21.067,16.767-28.91a47.393,47.393,0,0,1,31.261-13.358c8.126-.3,16.132,1.305,24.217,1.773a70.326,70.326,0,0,0,55.344-22.564c16.208-18.07,24.313-42.611,43.583-58.072a60.594,60.594,0,0,1,21-11.379,47.279,47.279,0,0,1,10.092-1.727c3.559-.219,7.039.183,10.584.28a92.213,92.213,0,0,1,24.259,4.4c3.71,1.128,7.361,2.451,11.089,3.518,3.588,1.027,7.223,1.879,10.844,2.786,7.084,1.775,14.219,3.765,20.489,7.625C850.585,397.032,851.009,396.3,850.546,396.018Z" transform="translate(-566.534 -377.233)"/><path class="f" d="M635.112,484.191c7.138-1.092,14.9.466,21.972.982a67.957,67.957,0,0,0,19.106-.967c12.333-2.672,24.573-11.941,32.439-21.49,13.953-16.938,21.727-36.994,38.357-51.862a59.97,59.97,0,0,1,20.141-12.425c10.28-3.839,18.165-3.238,28.74-1.131,17.846,3.556,33.619,6.065,48.527,17.333,13.608,10.286,13.192,32.394,10.231,47.355-4.324,21.851-17.015,44.451-28.418,63.255-12.894,21.261-33.62,40.726-59.143,44.391a199.414,199.414,0,0,1-40.52,1.938c-10.646-.632-21-2.02-31.72-1.181-26.3,2.058-59,12.629-81.985-5.32-9.4-7.344-14.173-23.292-15.3-34.853C597.534,530.216,593.526,490.552,635.112,484.191Z" transform="translate(-568.454 -378.376)"/><path class="f" d="M657.539,497.3c8.569,0,13.593.068,22.061.029,10.435-.049,18.419-6.271,26.876-11.77,10.325-6.713,17.985-17.71,26.126-26.808,8.261-9.23,16.422-18.085,25.262-26.734,9.891-9.677,25.683-21.016,40.424-18.972,17.4,2.414,38.517,12.514,44.266,30.185,6.589,20.255-8.256,44.123-17.034,61.528-8.154,16.167-19.631,34.417-36.481,42.146-15.078,6.917-32.367,7-48.365,3.523-21.054-4.58-40.155-4.846-61.715-3.078-15.157,1.243-38.5,8.971-48.521-3.5C607.961,515.872,639.8,497.309,657.539,497.3Z" transform="translate(-570.024 -379.443)"/><path class="f" d="M649.819,513.276c9-4.263,16.411-4.594,26.412-4.208,13.62.523,27.309-4.929,38.212-13.157,12.337-9.309,24.3-20.152,35.79-30.531,6.365-5.752,15.631-10.869,24.194-12.405,10.455-1.875,19.684,7.127,24.722,15.627,5.26,8.872,7.3,16.98,1.417,25.977-6.666,10.2-19.573,16.927-29.471,23.395a96.155,96.155,0,0,1-47.255,15.646c-17.661,1.163-34.436.819-51.928,4.5-5.852,1.231-11.707,3.072-17.407,3.083-7.849.015-14.648-5.865-15.023-13.7C639.253,522.719,641.369,517.277,649.819,513.276Z" transform="translate(-571.066 -381.924)"/><path class="f" d="M772.287,468.269c-13.287,2.054-22.682,12.373-30.572,22.386-5.492,6.97-11.248,18.111-3.262,24.985a10.8,10.8,0,0,0,5.763,3.22c10.094,2.2,23-4.058,30.9-9.968,6.032-4.516,13.563-9.573,16.891-16.622C798.189,479.173,785.628,466.206,772.287,468.269Z" transform="translate(-576.973 -382.876)"/></g><g transform="translate(6.45 127.965)"><path class="f" d="M290.4,338.965c17.531-6.482,24.214-9.02,39.028,3.25,13.779,11.412,26.913,22.713,43,30.8,38.205,19.2,49.085-11.328,65.673-39.269,16.311-27.476,46.11-33,76.312-31.846,18.6.712,65.758-6.406,75.939,15.643,9.342,20.232-15.653,41.348-8.816,62.416,6.407,19.746,37.268,30.259,26.047,56.638-8.908,20.944-49.5,18.1-67.285,22.991-25.815,7.094-34.8,25.316-28.026,49.665,8.23,29.581,15.969,53.763,14.869,85.308-1.335,38.269-31.229,73.071-59.517,96.213" transform="translate(-290.405 -301.35)"/><path class="f" d="M563.9,369.835c17.218,21.265,10.888,49.734-8.6,63.613-19.427,13.834-44.316,12.4-60.733,29.836-17.344,18.423-16.895,31.489-8.919,54.578,10.658,30.854,10.883,65.307-21.2,83.642-20.665,11.809-43.04,1.5-61.273-10.493-29.749-19.565-3.894-39.46,4.483-63.55,5.808-16.7-1.053-36.118,3.985-53.381,8.207-28.118,41.868-37.809,56.819-61.844,9.528-15.318,18.446-57.173,53.089-60.323A47.65,47.65,0,0,1,563.9,369.835Z" transform="translate(-296.547 -304.474)"/><path class="f" d="M420.362,520.991c7.266-15.5,5.15-35.2,13.534-50.847,4.611-8.608,11.928-13.537,19.535-19.222,9.746-7.284,14.665-15.355,20.028-26.181,8.1-16.344,21.588-44.419,39.169-53.1,10.322-5.1,24.428-5.8,32.121,3.219,27.583,32.328-19.617,54.436-42.53,68.246-18.393,11.085-33.278,24.371-38.6,45.837-2.266,9.14-2.684,20.29-.174,29.37,2.785,10.078,8.85,22.707,8.475,33.4-.707,20.206-26.275,39.628-45.073,28.162C426.848,579.878,400.522,563.313,420.362,520.991Z" transform="translate(-298.021 -305.486)"/><path class="f" d="M544.465,392.929c-3.623-19.129-25.982-13.3-36.073-3.736-7.219,6.842-14.126,16.255-16.873,25.979-1.673,5.923-1.5,16.753,6.186,17.345,5.551.427,13.89-2.468,21.768-7.158C531.257,420.11,547.173,407.219,544.465,392.929Z" transform="translate(-302.85 -306.255)"/><path class="f" d="M448.229,487.671c2.9,11.652,3.5,22.865,5.821,34.456,2.605,12.986,8.211,24.505,6.306,38.075-1.846,13.153-15.8,20.087-27.134,12.519-16.072-10.736-7.78-28.872-1.769-42.908,3.74-8.732,7.172-18.518,7.483-28.035C439.412,487.23,445.791,477.858,448.229,487.671Z" transform="translate(-298.7 -312.678)"/><path class="f" d="M305.447,383.025c7.513-5.559,13.924-9.334,23.547-9.719,17-.678,28.94,9.18,43.05,16.86,11.7,6.371,22.158,11.656,35.826,10.449,16.324-1.441,30.472-12.071,38.939-25.659,6.671-10.707,8.447-23.439,14.3-34.482,4.657-8.785,14.49-15.14,23.4-18.977,11.42-4.921,23.74-5.933,36.1-5.924,12.4.01,26.01-1.673,38.136,1.318,11.865,2.927,24.651,11.531,23.158,25.1-1.243,11.3-7.956,20.03-7.967,31.775-.012,12.775,4.224,22.894,12.323,32.6,5.631,6.749,13.478,18.3,8.4,27.336-7.314,13.016-29.966,14.214-42.589,14.667-34.124,1.225-57.49,18.859-57.49,40.462,0,3.926.133,7.634.353,11.073a137.328,137.328,0,0,0,7.059,34.873c5.168,15.42,8.082,30.291,8.082,47.171,0,25.066-13.335,47.265-29.484,65.481-10.152,11.451-22.844,21.558-38.338,35.821" transform="translate(-291.34 -302.205)"/><path class="f" d="M300.277,409.764c11.627-4.206,37.116-7.018,49.208-2.875,9.237,3.165,18.427,10.308,25.532,16.9,6.31,5.849,14.834,11.19,17.451,19.953,3.144,10.525-7.943,17.421-11.923,25.817-4.519,9.536-.155,17.829,1.3,27.454,1.364,9.015,4.029,17.654-6.482,20.689-11.616,3.354-20.39-6.584-30.164-11.907-11.172-6.085-23.943-6.122-36.106-3" transform="translate(-291.018 -307.782)"/><path class="f" d="M377.241,503.219c1.042-5.481,2.664-13.017-3.428-16.221-10.409-5.477-23.115,4.979-18.893,14.495C360.052,512.536,374.59,517.156,377.241,503.219Z" transform="translate(-294.363 -312.793)"/><path class="f" d="M305.212,423.105c20.226-2.859,38.982-5.285,56.081,8.746,9.029,7.408,20.7,24.292,5.271,32.926-5.012,2.8-9.6,2.951-14.449,7.3-4.616,4.135-5.725,7.873-8.382,13.209-8.706,17.483-24.934-3.182-36.537-5.967" transform="translate(-291.325 -308.78)"/><path class="f" d="M313.674,469.034c4.025,5.567,10.056,10.021,17.086,9.93,0,0,7.749,1.286,7.9-5.975.279-13.771,11.443-8.447,23.754-13.016,14.426-5.353-2.593-17.548-9.706-19.852-14.218-4.606-25.354-5.568-39.03.477" transform="translate(-291.851 -309.74)"/><path class="f" d="M310.459,449.311c7.81,0,24.855-3.131,27.969,7.259,4.552,15.188-28.974,4.7-33.92,2" transform="translate(-291.281 -310.517)"/><g transform="translate(3.524 214.45)"><path class="f" d="M295.573,530.01c17.909,5.054,33.763,7.542,50.145,17.091,5.039,2.937,13.626,6.681,16.619,11.638,6.128,10.149.488,26.663,4.674,38.076,4.814,13.122,17.361,25.137,29.347,32,12.689,7.266,27.561,4.279,40.589,10.259,29.582,13.581-12.85,57.217-22.341,68.822" transform="translate(-294.25 -530.01)"/><path class="f" d="M294.868,567.373c9.3,0,19.941-.883,28.764,2.311,9.113,3.3,12.185,12,16.387,19.712,4.442,8.152,8.311,16.66,12.882,24.765,5.894,10.452,14.163,17.494,22.892,25.59,8.9,8.25,24.937,16.438,31.4,26.6,14.319,22.534-17.087,47.119-23.709,66.343" transform="translate(-294.206 -532.325)"/><path class="f" d="M294.162,582.833c7.309-2.568,17.828.677,24.565,4.132,8.37,4.293,8.909,9.742,12.131,17.959,6.707,17.1,22.3,27.535,35.563,39.207,8.673,7.629,21.322,16.773,26.82,27.319,13.043,25.02-10.362,48.828-26.337,66.126" transform="translate(-294.162 -533.235)"/><path class="f" d="M299.1,596.291c5,3.6,12.1,4.387,17.585,7.961,7.207,4.7,8.625,10.25,12.029,17.918,6.533,14.714,18.075,24.636,30.69,34.3,8.488,6.5,19.641,12.849,23.43,23.3,8.463,23.349-20.722,42.1-31.492,59.361" transform="translate(-294.469 -534.129)"/><path class="f" d="M305.444,623.084c9.734-.49,17.495,11.719,21.076,19.123,6.118,12.647,14.888,19.415,25.3,28.465,8.325,7.236,20.434,14.336,19.849,26.71-.758,16.01-16.507,27.938-27.21,38.123" transform="translate(-294.863 -535.793)"/><path class="f" d="M296.278,556.307c13.2-4.6,38.522,2.552,50.257,10.238,12.095,7.922,10.616,25.944,14.521,38.218,4.032,12.676,16.336,24.123,26.864,31.618,10.323,7.35,27.053,14.161,30.862,27.044,6.558,22.188-8.744,38.506-16.7,57.546" transform="translate(-294.293 -531.554)"/></g></g><g transform="translate(0 5.778)"><path class="f" d="M283.528,281.119c22.462,6.59,29.363,9.7,51.653,17.089,10.94,3.626,29.35,13.032,40.317,16.445,29.348,9.133,57.375-22.907,78.195-37.93,34.43-24.842,51.314-62.848,45.672-105.658" transform="translate(-283.528 -171.066)"/><path class="f" d="M293.149,267.774c4.946,2.515,10.684,2.054,15.93,3.535,7.5,2.118,14.948,5.159,22.517,7.327,5.894,1.688,14.706,4.354,19.545-.439,8.1-8.029,3.322-22.35,15.3-28.722,10.164-5.408,16.853-1.8,22.23,6.467,9.642,14.83,17.011,32.059,34.885,17.031,11.129-9.356,21.746-19.416,33.006-28.779,7-5.819,16.778-11.419,21.271-19.5C484.069,213.48,482,198.673,482,186.424" transform="translate(-284.126 -172.02)"/><path class="f" d="M294.635,256.93c13.5.276,30.258,8.763,43.321,2.663,15.355-7.171,15.243-28.83,35.039-30.74,6.29-.607,13.611-.78,18.825,3.182,5.583,4.243,7.4,11.861,12.551,16.492,12.464,11.2,26.1-8.517,36.5-15.285,6.363-4.142,15.7-9.769,20.334-15.989,7.185-9.635,4.855-24.634,4.853-36.062" transform="translate(-284.218 -171.695)"/><path class="f" d="M290.92,246.039c8.068,3.8,25.561,3.148,34.818.943,4.767-1.136,8.789-4.1,12.395-7.244,7.593-6.613,12.416-15.138,21.694-19.717,11.124-5.491,29.727-6.692,39.649,2.16,4.766,4.252,6.531,9.156,13.3,11.076,7.88,2.237,12.608-2.358,19.107-6.721,6.169-4.141,12.359-8.654,16.533-15.017,7.145-10.891,3.274-24.126,2.787-36.311" transform="translate(-283.987 -171.323)"/><path class="f" d="M392.556,282.163c-.06-8.707-7.565-25.965-17.708-15.4-4.584,4.776-4.985,12.8-3.959,19.561a14.014,14.014,0,0,0,.8,4c.034.136.065.279.1.414l.022-.079c1.253,3.187,3.8,6.025,8.051,8.112C392.6,305.035,392.617,290.916,392.556,282.163Z" transform="translate(-288.928 -176.807)"/></g><g transform="translate(246.686)"><path class="f" d="M546.56,179.415c1.912,4.74,5.169,8.439,7.053,13.3,3.525,9.1,5.555,19.336,10.815,27.736C576.1,239.1,604.609,241.9,621.05,255.022c10.285,8.209,19.762,20.537,22.938,33.52,3.615,14.775-4.777,31.7-6.044,46.657-1.324,15.632-3.253,40.423,14.872,48.065,14.2,5.985,34.221-1.477,45.773-9.556,13.681-9.568,25.425-22.308,40.155-29.943,7.6-3.937,14.2-6.447,17.088-14.842,2.293-6.674,2-10.072-4.725-12.076-5.84-1.739-10.207,1.169-13.835-4.712-3.122-5.06-.657-8.621,2.211-13,10.843-16.567,34.333-13.128,51.687-13.594,28.758-.772,55.805-5.543,83.72-12.286,14.387-3.476,22.962-5.555,42.378-13.158,22.389-8.767,44.65-23.884,46.436-49.808.987-14.329,11.311-32.365,14.784-45.381" transform="translate(-546.56 -164.905)"/><path class="f" d="M568.251,183.007c3.887,10.963,4.6,24.718,13.852,33.108,10.177,9.233,30.19,10.088,42.762,13.907,29.1,8.84,57.777,26.142,51.87,60.779-3.26,19.119-15.054,33.987-15.552,53.8-.173,6.856,1.875,16.3,9.229,18.652,8.489,2.711,8.673-4.941,12.051-9.758,11.587-16.529,55.693-8.931,49.853-27.593-1.43-4.566-5.322-7.81-5.846-13.847-1.476-17.04,13.077-31.973,28.893-36.127,12.148-3.19,26.669-1.351,39.22-1.832,12.692-.486,25.415-2.545,38.039-3.858,19.648-2.045,37.46-8.924,56.146-14.6,11.392-3.459,23.038-7.228,33.289-13.418,25.289-15.268,21.3-39.277,27.7-64.914" transform="translate(-547.908 -165.676)"/><path class="f" d="M616.374,178.468c2.636,7.815.888,16.573,4.406,24.2,5.945,12.881,20.735,15.138,32.3,20.743,16.789,8.138,32.008,25.951,36.185,44.276,1.92,8.419,2.694,19.916-.429,27.745-5.126,12.848-10.253,23.873-13.938,37.331-1.291,4.713-4.417,11.791,2.928,12.258,4.895.311,7.53-5.628,11.164-8.29,8.336-6.105,16.161-10.034,20.758-19.994,8.7-18.853,11.642-42.185,34.045-50.767,28.4-10.881,60-8.022,89.861-8.995,24.143-.787,53.861-8.628,74.792-20.964,9.341-5.505,17.031-12.819,22.021-22.579,5.2-10.175,3.091-22.183,7.524-32.27" transform="translate(-550.899 -165.748)"/><path class="f" d="M643.142,181.855c1.2,34.729,52.654,34.37,59.654,68.259,2.571,12.449-1.557,24.168-2.757,36.216-.622,6.236-1.04,20.834,8.442,11.087,3.518-3.615,3.856-9.727,5.8-14.154,2.717-6.207,6.253-12.81,10.847-17.86,11.843-13.017,27.514-16.419,44.03-19.966,16.82-3.611,34.777-2.454,51.95-2.923,17.923-.49,34.186-2.683,51.316-8.193,14.486-4.659,28.8-8.4,40.195-19.3,5.358-5.125,9.162-11.918,12.1-18.67,4.029-9.249,2.946-19.17,5.812-28.429" transform="translate(-552.562 -165.092)"/></g><g transform="translate(580.946 8.181)"><path class="f" d="M1032.035,173.628c-5.758,15.3-8.082,31.4-15.188,46.441-9.144,19.352-26.56,34.058-44.349,45.652-24.841,16.189-69.466,25.513-69.529,61.745-.036,20.1,16.946,26.244,31.129,37.043,14.313,10.9,22.5,26.388,37.4,36.7,19.28,13.337,43.032,17.713,65.064,25.221,23.534,8.021,47.21,10.682,71.885,11.915" transform="translate(-902.969 -173.628)"/><path class="f" d="M1046.517,177.67c-12.053,8.257-9.952,32.9-14.7,45.769-6.18,16.755-20.076,31.224-33.6,42.15-13.717,11.082-29.029,19.916-44.389,28.747-10.073,5.791-25.046,11.786-30.9,22.174-7.693,13.648-.79,15.648,9.25,21.563,12.9,7.6,23.287,18.463,31.778,30.841,12.237,17.842,21.7,26.926,43.636,33.362,29.906,8.777,60.486,11.276,91.49,12.754" transform="translate(-904.005 -173.879)"/><path class="f" d="M1059.408,180.489c-13.989,15.815-9.518,35.564-15,53.617-8.051,26.5-35.468,47.472-58.572,60.266-8.8,4.87-47.637,22.764-41.674,35.517,3.257,6.964,17.034,6.646,22.539,12.2,7.963,8.033,9.246,20.578,16.314,29.61,13.044,16.668,34.8,20.257,54.416,24.988a332.669,332.669,0,0,0,62.546,9.058" transform="translate(-905.49 -174.054)"/><path class="f" d="M1074.449,184.53c-11.446,10.9-12.036,40.229-13.894,54.071-2.057,15.334-7.82,27.847-17.794,39.813-9.318,11.177-20.761,18.076-33.511,24.365-10.893,5.373-27.237,9.287-35.678,18.366-9.182,9.877-2.611,11.294,7.15,15.363,12.016,5.009,11.029,11.484,17.209,22.162,19.485,33.67,81.189,35.149,110.32,17.241" transform="translate(-907.083 -174.306)"/><path class="f" d="M1076.934,270.568c-2.73,17.519-27.188,34.018-39.958,44.521-10.957,9.011-20.275,15.468-14.227,30.281,4.265,10.447,18.211,20.891,29.968,21.671,25.105,1.668,45.781-28.628,62.552-43.263" transform="translate(-910.294 -179.652)"/></g><g transform="translate(478.725 132.324)"><path class="f" d="M876.568,328.546c5.554-7.409,1.335-13.438-5.783-18.052-7.93-5.141-18.207-4.632-27.4-4.309-11.238.395-23.891,3.311-34.641,6.616-6.639,2.042-14.3,2.934-14.749,11.152a15.686,15.686,0,0,0,1.616,7.593c2.772,9.267,11.417,17.93,20.381,19.988C815.993,351.534,849.338,364.868,876.568,328.546Z" transform="translate(-793.975 -305.997)"/><path class="f" d="M823.175,346.227c9.805,2.968,17.823-.268,25.917-5.566,6.3-4.125,12.507-8.375,12.7-16.6.318-13.62-22.178-11.248-30.921-9.875-8.3,1.3-29.634,5.086-25.735,15.742C805.136,329.932,807.848,341.588,823.175,346.227Z" transform="translate(-794.639 -306.439)"/></g><g transform="translate(218.96 51.443)"><path class="f" d="M586.959,262.95c-6.755-4.852-14.7-8.248-22-12.345-6.684-3.753-10.2-9.658-14.341-15.341q-.371-.643-.753-1.287c-2.886-4.852-6.226-11.975-12.137-13.672-11.725-3.367-16.908,9.509-19.071,18.591-3.836,16.1-1.989,35.028,15.748,41.462,10.834,3.931,22.078,3.8,33.425,3.693a36.385,36.385,0,0,0,17.174-4.73C591.994,275.349,593.955,267.974,586.959,262.95Z" transform="translate(-516.997 -219.756)"/><path class="f" d="M542.206,271.924c6.265,2.746,9.8,3.834,15.087,4.189,4.259.287,8.674.471,12.273-2.135,2.529-1.831,4.141-3.76,3.982-7.043-.15-3.1-3.178-4.553-5.647-5.855-6.065-3.2-13.566-5.541-17.545-11.5-3.152-4.716-4.663-10.049-8.315-14.465-2.584-3.124-5.2-6.3-9.7-5.673-4.707.656-7.082,6.079-8.17,10.116-1.8,6.7-.373,13.821,2.945,19.756C527.114,259.318,532.8,267.8,542.206,271.924Z" transform="translate(-517.394 -220.354)"/></g><g transform="translate(571.776 252.974)"><g transform="translate(17.355 17.006)"><path class="f" d="M1094.01,502.148c-28.005-2.76-61.353-9.6-85.406-24.611-14.8-9.24-29.013-14.628-45.6-19.356-12.053-3.436-25.071-11.3-30.272,2.252-5.291,13.789,3.975,27.588-4.612,42.582-7.269,12.693-16.505,17.1-16.424,33.336.082,16.374,6.352,23.347,19.978,29.99,10.383,5.062,23.07,7.029,32.315,14.408,10.207,8.147,16.068,20.744,23.893,30.9,27.613,35.826,73.9,46.429,117.319,48.046" transform="translate(-911.696 -452.775)"/><path class="f" d="M1086.208,541.7c-25.717,11.411-56.9-24.907-73.645-39.281-13.424-11.523-25.573-22.852-42.263-29.508-5.279-2.1-17.029-6.007-22.326-2.392-8.373,5.713,1.208,17.409,4.264,23.822,4.453,9.349,9.857,21.739,6.379,32.425-2.607,8.012-14.816,15.921-10.953,25.4,2.823,6.931,17.5,9.652,23.061,12.292a53.46,53.46,0,0,1,13.86,9.57c8.052,7.9,9.148,18.885,14.83,28.084,6.133,9.928,17.343,18.783,27.783,24.2,7.425,3.855,15.21,5.634,23.482,6.828,7.558,1.092,23.164,5.554,30.085.373" transform="translate(-913.743 -453.785)"/><path class="f" d="M1075.637,560.488c-4.581-3.09-11.142-2.774-16.369-4.839-5.347-2.111-10.736-5.622-15.577-8.76-7.3-4.73-13.185-10.213-19.724-15.943-9.739-8.533-18.307-19.083-29.025-26.194-6.911-4.585-17.519-13.383-26.326-12.19-2.888,16.856,39.1,27,25.6,48.517-2.513,4.008-9.178,6.164-10.256,11.22-1.456,6.826,6.089,10.993,10.081,15.793,9.248,11.123,11.583,26.092,20.029,37.6,14.623,19.926,42.451,17.39,64.517,18.872" transform="translate(-915.225 -455.24)"/><path class="f" d="M1067.878,575.524c-7.605-3.533-14.56-5.28-21.032-10.309-5.635-4.378-11.1-9.141-16.729-13.439-6.607-5.048-19.871-9.151-21.873,3.388-1.565,9.812,7.238,24.237,12,32.363,11.975,20.432,35.765,26.214,58.067,27.17" transform="translate(-917.685 -458.622)"/></g><path class="f" d="M1082.483,486.411c-24.754.5-39.221-5.205-61.486-16.623-24.659-12.645-24.659-12.645-52.768-26.385-10.7-5.233-35.284-15.268-44.492-2.685-6.332,8.654-.842,21.708-2.587,31.318-5.081,28-37.5,51.48-25.191,82.793,5.746,14.62,23.289,19.929,36.911,25.4,12.281,4.935,22.023,12.079,28.782,23.587,30.909,52.626,88.789,70.973,147.364,76.763" transform="translate(-893.191 -434.642)"/></g><g transform="translate(216.472 409.335)"><path class="f" d="M514.344,711.069c22.544-9.971,39.136-29.4,59.929-42.307,28.438-17.651,63.4-15.959,95.585-19.89,31.971-3.905,60.52-11.32,92.351-25.832,11.923-5.436,23.211-11.337,35.415-15.875,15.489-5.76,32.521-6.056,48.87-5.7,20.824.455,66.759,21.277,56.056,49.983-4.5,12.08-15.463,5.964-21.489,13.12-7.048,8.37,5.806,15.119,12.095,17.733,16.06,6.675,36.146,1.527,53.025,3.906,13.752,1.939,27.867,5.824,41.257,9.491,16.19,4.432,31.969,12.46,47.9,16.3" transform="translate(-514.344 -601.364)"/><path class="f" d="M540.09,713.419c10.987-7.582,18.833-18.919,30.652-25.847,10.084-5.911,21.909-9.408,33.455-11.114,46.405-6.859,94.938.3,138.493-20.233,29.83-14.062,68.453-37.027,103.375-30.992,13.23,2.286,16.376,9.3,7.061,18.511-8.269,8.183-17.664,13.75-15.713,27.139,1.976,13.572,17.06,20.18,28.6,23.615,10.648,3.171,21.306,5.422,31.678,9.742,13.077,5.445,27.257,15.538,41.736,16.61" transform="translate(-515.944 -602.785)"/><path class="f" d="M588.611,708.185c24.556-19.707,63.022-13.456,92.6-14.634,19.92-.793,43.14-2.214,60.613-13.138,14.259-8.914,25.625-21.744,41.157-28.962,16.36-7.6,40.026-13.664,43.424,9.423,1.089,7.4-.919,13.741,2.65,20.775,7.089,13.969,26.622,18.31,40.024,23.75" transform="translate(-518.959 -604.052)"/><path class="f" d="M734.174,704.826c16.027,1.708,27.623-15.457,38.288-25.278,6.579-6.058,24.773-16.751,34.868-13.742,9.7,2.892,6.453,10.97,8.48,18.5,4.829,17.933,18.051,20.55,33.521,27.952" transform="translate(-528.005 -605.336)"/><path class="f" d="M770.812,711.527c7.119-5.839,20.393-29.734,30.761-27.978,9.064,1.535,11.39,18.839,13.816,26.121" transform="translate(-530.282 -606.465)"/><g transform="translate(387.405 38.601)"><path d="M952.545,644.692a14.409,14.409,0,0,0-4.6,5.773c-1.165,2.394-2.13,4.949-4,6.908-3.68,3.862-9.671,4.173-13.321,8.11-2.517,2.716-4.935,7.84-1.5,10.835,1.952,1.7,4.916,2.055,7.4,2.241,1.527.115,3.06.121,4.591.091,1.788-.035,3.559.076,5.348.111a122.891,122.891,0,0,0,18.606-.971c4.461-.6,9.1-1.939,12.713-4.727a11.776,11.776,0,0,0,4.731-10.713,20.086,20.086,0,0,0-5.1-10.75c-5.688-6.591-16.589-12.366-24.853-6.91-.452.3-.029,1.03.426.73,7.016-4.632,16.136-.571,21.667,4.542,5.577,5.155,10.423,14.616,4.079,21.142-3,3.086-7.358,4.639-11.492,5.473a94.177,94.177,0,0,1-15.767,1.308c-3.038.087-6.06-.129-9.091-.113a38.519,38.519,0,0,1-9.267-.563c-2.3-.55-4.613-1.712-4.82-4.339-.172-2.2.994-4.385,2.315-6.058,3.376-4.278,9.263-4.7,13.241-8.169,4.186-3.648,4.482-9.968,9.134-13.225C953.413,645.112,952.991,644.38,952.545,644.692Z" transform="translate(-927.42 -642.522)"/></g></g><path class="f" d="M707.684,406.017c-3.8-2.45-11.577.6-15.224,2.017-7.77,3.027-14.409,3.084-22.351,4.9-6.193,1.416-9.86,5.44-10.771,11.511-.959,6.387.571,12.14-1.808,18.4-1.4,3.689-6.935,8.938-2.206,11.865,5.052,3.128,26.494-8.3,32.209-12.646,7.686-4.336,14.381-9.917,18.448-17.062C708.746,420.14,713.033,409.464,707.684,406.017Z" transform="translate(-306.517 -179.832)"/><path class="f" d="M574.1,610.658c.451.291.884.588,1.284.883,8.933,6.619,14.774,11.632,25.288,15.114,11.823,3.916,9.624,13.5.308,19.739-8.245,5.523-21.418,9.78-31.64,6.819-11.465-1.633-14.907-11.59-11.411-25.919.92-3.768,1.151-14.407,3.64-17.3C561.569,609.991,565.036,603.984,574.1,610.658Z" transform="translate(-300.5 -192.411)"/><path class="f" d="M582.09,625.175c-2.35-2.531-4.635-4.633-8.157-5.041-8.772-1.015-11.4,9.925-10.051,16.772.94,4.787,5.3,6.779,9.911,6.963,6.554.89,16.143-1.708,16.3-7.7C590.2,632.336,584.481,627.75,582.09,625.175Z" transform="translate(-300.93 -193.191)"/><path class="f" d="M763.635,195.349c-15.624,4.749-32.317,18.769-34.145,35.955-.4,3.749-.768,8.177,2.84,10.35,6.533,3.934,14.652-3.162,19.986-5.834,10.788-5.406,24.175-5.615,36.03-5.9,13.724-.326,26.991-.928,40.6-3.162,16.314-2.678,32.756-5.08,46.681-14.431,8.6-5.773,14.677-12.3,20.969-20.317" transform="translate(-311.227 -166.59)"/><path class="f" d="M788.093,195.432c-7.943,5.19-19.947,7.968-25.795,15.745-5.817,7.734,5.046,7.834,10.4,6.919,7.9-1.348,15.1-2.6,23.258-2.666,12.3-.095,24.512.675,36.649-1.685,14.126-2.748,33.287-5.659,40.513-20.4" transform="translate(-313.178 -166.673)"/></g></g></g><g class="g" transform="translate(0 -62.808)"><rect class="h" width="483" height="45" transform="matrix(-0.799, 0.602, -0.602, -0.799, 359.016, 35.939)"/><rect class="h" width="483" height="45" transform="matrix(-0.799, 0.602, -0.602, -0.799, 512.823, 56.939)"/></g></g></svg>