<svg xmlns="http://www.w3.org/2000/svg" xmlns:xlink="http://www.w3.org/1999/xlink" width="513.839" height="99.54" viewBox="0 0 513.839 99.54"><defs><style>.a{fill:#20244b;}.b{fill:#6abfae;}.c{fill:url(#a);}.d{fill:url(#b);}.e{fill:url(#c);}.f{fill:url(#d);}.g{fill:url(#e);}.h{fill:url(#f);}</style><linearGradient id="a" x1="-32.525" y1="-14.36" x2="-30.873" y2="-14.36" gradientUnits="objectBoundingBox"><stop offset="0" stop-color="#2c4b9a"/><stop offset="1" stop-color="#20244b"/></linearGradient><linearGradient id="b" x1="-32.356" y1="-69.136" x2="-31.671" y2="-67.287" gradientUnits="objectBoundingBox"><stop offset="0" stop-color="#6abfae"/><stop offset="1" stop-color="#0d6376"/></linearGradient><linearGradient id="c" x1="-32.594" y1="-26.042" x2="-31.946" y2="-25.344" xlink:href="#a"/><linearGradient id="d" x1="-65.647" y1="-19.31" x2="-63.032" y2="-19.92" gradientUnits="objectBoundingBox"><stop offset="0" stop-color="#8b1a42"/><stop offset="1" stop-color="#e51a5e"/></linearGradient><linearGradient id="e" x1="-35.556" y1="-25.557" x2="-35.139" y2="-25.793" gradientUnits="objectBoundingBox"><stop offset="0" stop-color="#fff" stop-opacity="0.502"/><stop offset="0.015" stop-color="#eeeef1" stop-opacity="0.463"/><stop offset="0.075" stop-color="#b7b8c5" stop-opacity="0.341"/><stop offset="0.142" stop-color="#87899e" stop-opacity="0.231"/><stop offset="0.218" stop-color="#61647f" stop-opacity="0.145"/><stop offset="0.307" stop-color="#434767" stop-opacity="0.078"/><stop offset="0.417" stop-color="#2f3257" stop-opacity="0.035"/><stop offset="0.572" stop-color="#23274d" stop-opacity="0.008"/><stop offset="1" stop-color="#20244b" stop-opacity="0"/></linearGradient><linearGradient id="f" x1="-73.982" y1="-52.22" x2="-72.979" y2="-53.217" xlink:href="#a"/></defs><g transform="translate(-164.025 -247.868)"><path class="a" d="M450.156,301.876H420.5V278.149H356.434c.711-4.152,5.694-5.932,10.677-5.932h26.4l-.029-17.794H367.111c-13.762,0-29.659,13.167-29.659,23.726v17.8H402.7v5.932H313.725A12.582,12.582,0,0,1,301.149,289.3H283.354a30.353,30.353,0,0,0,30.371,30.37H467.951v-35.59H450.156Z"/><path class="a" d="M476.967,310.149a25.061,25.061,0,0,1-7.355,17.8l-.178.178L482.009,340.7l.178-.178a42.809,42.809,0,0,0,12.576-30.371V284.094l-17.8-.013Z"/><path class="a" d="M677.864,289.3a30.352,30.352,0,0,1-30.376,30.362H629.481l-.014.014H503.652V301.886h.014V254.474l17.792-.058v47.47h89.318c-.885-4.28-5.622-5.935-10.658-5.935H540.934V278.144h59.184a30.35,30.35,0,0,1,29.635,23.728h17.735a12.584,12.584,0,0,0,12.584-12.57Z"/><rect class="a" width="35.654" height="17.777" transform="translate(642.206 254.423)"/><rect class="a" width="35.654" height="17.777" transform="translate(432.297 254.423)"/><rect class="a" width="17.826" height="17.826" transform="translate(593.249 329.581)"/><path class="b" d="M301.877,333.758H296.5V330.59h14.64v3.168h-5.376V347.39h-3.888Z"/><path class="b" d="M328.637,344.27v3.12H315.629v-16.8h12.7v3.12h-8.832v3.648h7.8v3.024h-7.8v3.888Z"/><path class="b" d="M334.1,346.772a5.974,5.974,0,0,1-2.34-1.813l2.16-2.591a3.881,3.881,0,0,0,3.12,1.847q2.376,0,2.376-2.784V333.71h-5.9v-3.12h9.767v10.625a6.334,6.334,0,0,1-1.536,4.645,6.085,6.085,0,0,1-4.511,1.548A7.6,7.6,0,0,1,334.1,346.772Z"/><path class="b" d="M360.22,343.79h-7.8l-1.488,3.6h-3.984l7.489-16.8h3.839l7.512,16.8h-4.08ZM359,340.838l-2.664-6.432-2.664,6.432Z"/><path class="b" d="M380.645,347.39l-3.241-4.68h-3.576v4.68h-3.887v-16.8h7.271a9.333,9.333,0,0,1,3.876.744,5.758,5.758,0,0,1,2.532,2.112,5.818,5.818,0,0,1,.888,3.24,5.469,5.469,0,0,1-3.456,5.3l3.768,5.4Zm-.985-12.876a4.083,4.083,0,0,0-2.664-.756h-3.168v5.856H377a4.038,4.038,0,0,0,2.664-.768,3.028,3.028,0,0,0,0-4.332Z"/><path class="b" d="M401.043,343.79h-7.8l-1.488,3.6h-3.983l7.488-16.8h3.84l7.511,16.8h-4.08Zm-1.224-2.952-2.664-6.432-2.664,6.432Z"/><path class="b" d="M413.4,333.758h-5.376V330.59h14.641v3.168h-5.376V347.39H413.4Z"/><path class="b" d="M440.163,344.27v3.12H427.155v-16.8h12.7v3.12H431.02v3.648h7.8v3.024h-7.8v3.888Z"/><path class="b" d="M451.779,340.79l-2.255,2.352v4.248h-3.865v-16.8h3.865v7.848l7.439-7.848h4.32l-6.96,7.489,7.369,9.311h-4.537Z"/><path class="c" d="M190.171,347.4V277.458a29.623,29.623,0,0,1,29.59-29.59h30.687v26.293H219.761a3.3,3.3,0,0,0-3.3,3.3V347.4Z"/><path class="d" d="M0,0H59.648a0,0,0,0,1,0,0V22.1a0,0,0,0,1,0,0H4.351A4.351,4.351,0,0,1,0,17.753V0A0,0,0,0,1,0,0Z" transform="translate(250.448 287.759) rotate(90)"/><path class="e" d="M219.761,274.161h30.687V247.868H219.761a29.623,29.623,0,0,0-29.59,29.59v26.293A29.623,29.623,0,0,1,219.761,274.161Z"/><path class="f" d="M216.464,277.461a3.3,3.3,0,0,1,3.3-3.3,29.624,29.624,0,0,0-29.59,29.591v43.654h26.293Z"/><path class="g" d="M225.151,283.845h25.3V257.553h-25.3a29.453,29.453,0,0,0-18.812,6.765q-1.1.9-2.1,1.911a29.53,29.53,0,0,0-8.677,20.914v26.293A29.625,29.625,0,0,1,225.151,283.845Z"/><rect class="h" width="26.146" height="26.293" transform="translate(164.025 247.868)"/></g></svg>