<svg xmlns="http://www.w3.org/2000/svg" width="93.057" height="98.657" viewBox="0 0 93.057 98.657"><defs><style>.a{fill:#00718f;}.b{fill:#020202;}.c{font-size:34px;font-family:Cairo-Bold, Cairo;font-weight:700;}</style></defs><g transform="translate(300.638 -363.4)"><g transform="translate(-300.638 363.4)"><path class="a" d="M-295.33,450.948c13.331-32.976,47.038-48.705,53.86-51.6a1.746,1.746,0,0,0,1.045-1.833l-1.114-8.752a1.562,1.562,0,0,0-.082-.353,3.429,3.429,0,0,0-3.2-2.216c-2.729-.164-45.083,0-45.083,0a3.489,3.489,0,0,0-3.635,3.424c-.168,3.527-7.105,57.753-7.1,59.256,0,.686.413,2.749,3.261,3.274l.03,0A1.88,1.88,0,0,0-295.33,450.948Z" transform="translate(300.638 -364.777)"/><path class="b" d="M-251.651,392.094c0,.185.039.379.039.563v.019c0,.01-.01.029-.01.039a.828.828,0,0,1-.029.223.681.681,0,0,1-.136.262,5.565,5.565,0,0,1-.738.874,1.734,1.734,0,0,1-2.069.34.873.873,0,0,1-.68-.68c-.33-.136-.369-.447-.466-.719-.01-2.875-.01-5.761-.019-8.636a1.347,1.347,0,0,1-.262-.6c-.175-2.234.1-4.488-.214-6.722a.874.874,0,0,1,.175-.7c-.457-.835-.8-1.719-1.2-2.574a11.318,11.318,0,0,0-5.042-5.071,3.709,3.709,0,0,0-.4-.282,1.5,1.5,0,0,1-.641-.262h-.01a2.68,2.68,0,0,0-.5-.049,12.581,12.581,0,0,0-4.527-.661,5.454,5.454,0,0,0-1.379.058,3.018,3.018,0,0,0-.641.136.5.5,0,0,0-.107.019c-.175.049-.359.117-.534.185a2.041,2.041,0,0,1-.291.146,1.112,1.112,0,0,0-.165.058,1.47,1.47,0,0,1-.806.369,4.149,4.149,0,0,0-.427.291,12.049,12.049,0,0,0-5.45,5.916,4.5,4.5,0,0,0-.3.564,1.592,1.592,0,0,1-.214.738,2.219,2.219,0,0,0-.039.437,3.19,3.19,0,0,1-.146.748,2.948,2.948,0,0,0-.292,1.467c.029,1.982-.068,3.954.087,5.926-.155,2.419-.019,4.847-.068,7.266a2.275,2.275,0,0,1-.107,1.195.074.074,0,0,1-.019.039,3.76,3.76,0,0,1-.8,1.146.634.634,0,0,1-.155.126.472.472,0,0,1-.136.107,1.115,1.115,0,0,1-.3.155.6.6,0,0,1-.223.068.492.492,0,0,1-.126.019.289.289,0,0,1-.126.01h-.029a1.313,1.313,0,0,1-.194-.019.949.949,0,0,1-.223-.058,3.019,3.019,0,0,1-1.379-1.1,2.3,2.3,0,0,1-.223-.291,7.746,7.746,0,0,1-.136-2.633c-.049-2.021.039-4.041-.049-6.052a.7.7,0,0,1,.165-.534.484.484,0,0,0,.029-.233,38.292,38.292,0,0,1,.185-8.17c.058-.321.117-.612.457-.738l.049.019a2.186,2.186,0,0,1,.622-1.71,14.3,14.3,0,0,1,5.217-6.712,14.2,14.2,0,0,1,3.905-2.108.788.788,0,0,1,.981-.4c.389-.029.719-.369,1.146-.233.223-.01.457-.01.69-.01a10.593,10.593,0,0,1,4.653-.02l.923.029c.427-.136.758.2,1.146.224a.764.764,0,0,1,.971.408,15.356,15.356,0,0,1,7.733,6.13,5.521,5.521,0,0,0,.583.68,3.265,3.265,0,0,1,1.069,2.263.331.331,0,0,1,.01.1.258.258,0,0,1,.117.029c.078.369.146.729.223,1.1.029.068.049.146.078.214a5.5,5.5,0,0,1,.641,3.546v.544c.01,1.681.019,3.371.029,5.051a.8.8,0,0,1,.185.544c0,.262-.087.525-.078.787Q-251.622,388.689-251.651,392.094Z" transform="translate(300.145 -363.4)"/></g><path class="b" d="M-250.679,393.538a.78.78,0,0,1-.039.262.829.829,0,0,0,.029-.223C-250.689,393.567-250.679,393.548-250.679,393.538Z" transform="translate(-1.636 -1.086)"/><text class="c" transform="translate(-268.581 443.057)"><tspan x="0" y="0">Cart</tspan></text></g></svg>